<?xml version="1.0" encoding="UTF-8" standalone="no"?>
<!-- Created with Inkscape (http://www.inkscape.org/) -->

<svg
   xmlns:dc="http://purl.org/dc/elements/1.1/"
   xmlns:cc="http://creativecommons.org/ns#"
   xmlns:rdf="http://www.w3.org/1999/02/22-rdf-syntax-ns#"
   xmlns:svg="http://www.w3.org/2000/svg"
   xmlns="http://www.w3.org/2000/svg"
   xmlns:sodipodi="http://sodipodi.sourceforge.net/DTD/sodipodi-0.dtd"
   xmlns:inkscape="http://www.inkscape.org/namespaces/inkscape"
   width="210mm"
   height="297mm"
   viewBox="0 0 210 297"
   version="1.1"
   id="svg971"
   inkscape:version="0.92.3 (2405546, 2018-03-11)"
   sodipodi:docname="Arrow.svg"
   inkscape:export-filename="C:\Users\Charlie Wan\Documents\Shields Up\Assets\Sprites\Arrow.png"
   inkscape:export-xdpi="96"
   inkscape:export-ydpi="96">
  <defs
     id="defs965" />
  <sodipodi:namedview
     id="base"
     pagecolor="#ffffff"
     bordercolor="#666666"
     borderopacity="1.0"
     inkscape:pageopacity="0.0"
     inkscape:pageshadow="2"
     inkscape:zoom="2.8"
     inkscape:cx="202.17767"
     inkscape:cy="724.62564"
     inkscape:document-units="mm"
     inkscape:current-layer="layer2"
     showgrid="false"
     inkscape:window-width="2467"
     inkscape:window-height="1057"
     inkscape:window-x="85"
     inkscape:window-y="-8"
     inkscape:window-maximized="1" />
  <metadata
     id="metadata968">
    <rdf:RDF>
      <cc:Work
         rdf:about="">
        <dc:format>image/svg+xml</dc:format>
        <dc:type
           rdf:resource="http://purl.org/dc/dcmitype/StillImage" />
        <dc:title></dc:title>
      </cc:Work>
    </rdf:RDF>
  </metadata>
  <g
     inkscape:groupmode="layer"
     id="layer2"
     inkscape:label="Layer 2">
    <path
       style="fill:#00ff00;stroke:#00bf00;stroke-width:5;stroke-linecap:butt;stroke-linejoin:miter;stroke-miterlimit:4;stroke-dasharray:none;stroke-opacity:1"
       d="m 58.448146,75.970032 c -4.386125,8.050927 -2.015572,26.773018 -7.843007,32.600448 -0.168087,0.16809 -0.828744,2.68924 -0.755951,2.83482 0.116993,0.23399 1.804117,-0.13737 2.078868,0 1.432798,0.7164 12.26549,2.57008 14.079611,0.75596 0.319069,-0.31907 -1.899486,-6.53931 -2.456844,-7.65402 -2.409653,-4.819314 1.272405,-11.389804 -2.173364,-14.83557 -3.168433,-3.168436 -1.747406,-13.560628 -3.118302,-12.189732 -0.343363,0.343363 -3.02381,25.119902 -3.02381,27.025302 0,2.96823 -1.711192,3.39149 0.283483,5.38616 0.351417,0.35142 2.226601,0.0679 2.551337,-0.0945 0.828704,-0.41435 2.967837,0.24496 3.590775,-0.37798 0.805396,-0.8054 -2.963985,-27.987577 -3.118303,-28.064735 -1.002223,-0.501112 0.188987,6.088911 0.188987,6.614584 0,3.84639 0.377978,8.070567 0.377978,12.189731 0,1.06925 -0.758939,7.27008 -1.13393,6.52009 -1.180399,-2.3608 -0.256246,-10.665034 0.566965,-13.134674 0.246949,-0.74084 0.704432,-7.233067 1.039434,-6.898064 0.580925,0.580921 6.591554,23.174078 6.236608,23.529018 -0.682043,0.68204 -10.782634,1.22499 -12.473215,0.66146 -3.410744,-1.13691 3.023809,-20.484719 3.023809,-22.584082 0,-2.918578 1.417413,-6.858761 1.417413,-9.732885 0,-0.949653 0.283479,-3.784476 0.283479,-2.834823 0,5.658163 6.74334,29.44789 6.142115,30.04911 -0.197515,0.19752 -3.212799,-8.046814 -3.212799,-7.465034 0,9.300434 2.453061,15.765104 -9.35491,13.040184"
       id="path1530"
       inkscape:connector-curvature="0" />
  </g>
  <g
     inkscape:label="Layer 1"
     inkscape:groupmode="layer"
     id="layer1">
    <path
       style="fill:#000000;stroke:#000000;stroke-width:3;stroke-linecap:butt;stroke-linejoin:miter;stroke-miterlimit:4;stroke-dasharray:none;stroke-opacity:1"
       d="M 47.164553,114.43161 58.208333,68.330296"
       id="path861"
       inkscape:connector-curvature="0"
       sodipodi:nodetypes="cc" />
    <path
       style="fill:none;stroke:#000000;stroke-width:3;stroke-linecap:butt;stroke-linejoin:miter;stroke-miterlimit:4;stroke-dasharray:none;stroke-opacity:1"
       d="m 58.208333,68.330296 11.04378,46.101314"
       id="path863"
       inkscape:connector-curvature="0" />
    <path
       style="fill:none;stroke:#000000;stroke-width:3;stroke-linecap:butt;stroke-linejoin:miter;stroke-opacity:1;stroke-miterlimit:4;stroke-dasharray:none"
       d="M 47.164553,114.43161 H 69.252112"
       id="path1524"
       inkscape:connector-curvature="0" />
  </g>
</svg>
