<?xml version="1.0" encoding="UTF-8" standalone="no"?>
<!-- Created with Inkscape (http://www.inkscape.org/) -->

<svg
   xmlns:dc="http://purl.org/dc/elements/1.1/"
   xmlns:cc="http://creativecommons.org/ns#"
   xmlns:rdf="http://www.w3.org/1999/02/22-rdf-syntax-ns#"
   xmlns:svg="http://www.w3.org/2000/svg"
   xmlns="http://www.w3.org/2000/svg"
   xmlns:xlink="http://www.w3.org/1999/xlink"
   xmlns:sodipodi="http://sodipodi.sourceforge.net/DTD/sodipodi-0.dtd"
   xmlns:inkscape="http://www.inkscape.org/namespaces/inkscape"
   width="210mm"
   height="297mm"
   viewBox="0 0 210 297"
   version="1.1"
   id="svg8"
   inkscape:version="0.92.3 (2405546, 2018-03-11)"
   sodipodi:docname="MiniGun.svg"
   inkscape:export-filename="C:\Users\Charlie Wan\Documents\Shields Up\Assets\Weapon\MiniGun\MiniAmmoRing.png"
   inkscape:export-xdpi="96"
   inkscape:export-ydpi="96">
  <defs
     id="defs2">
    <inkscape:path-effect
       effect="spiro"
       id="path-effect858"
       is_visible="true" />
    <inkscape:path-effect
       effect="spiro"
       id="path-effect854"
       is_visible="true" />
    <inkscape:path-effect
       effect="spiro"
       id="path-effect850"
       is_visible="true" />
    <inkscape:path-effect
       effect="spiro"
       id="path-effect846"
       is_visible="true" />
    <inkscape:path-effect
       effect="spiro"
       id="path-effect842"
       is_visible="true" />
    <inkscape:path-effect
       effect="spiro"
       id="path-effect838"
       is_visible="true" />
    <inkscape:path-effect
       effect="spiro"
       id="path-effect834"
       is_visible="true" />
    <inkscape:path-effect
       effect="spiro"
       id="path-effect830"
       is_visible="true" />
    <inkscape:path-effect
       effect="spiro"
       id="path-effect826"
       is_visible="true" />
    <radialGradient
       inkscape:collect="always"
       xlink:href="#linearGradient1432"
       id="radialGradient1434"
       cx="79.949417"
       cy="206.26285"
       fx="79.949417"
       fy="206.26285"
       r="33.679874"
       gradientTransform="matrix(1.8170061,0,0,3.9763427,-65.658017,-615.60617)"
       gradientUnits="userSpaceOnUse" />
    <linearGradient
       inkscape:collect="always"
       id="linearGradient1432">
      <stop
         style="stop-color:#ff00c0;stop-opacity:1;"
         offset="0"
         id="stop1428" />
      <stop
         style="stop-color:#2100ff;stop-opacity:0"
         offset="1"
         id="stop1430" />
    </linearGradient>
  </defs>
  <sodipodi:namedview
     id="base"
     pagecolor="#ffffff"
     bordercolor="#666666"
     borderopacity="1.0"
     inkscape:pageopacity="0.0"
     inkscape:pageshadow="2"
     inkscape:zoom="0.70710678"
     inkscape:cx="470.37491"
     inkscape:cy="562.2618"
     inkscape:document-units="mm"
     inkscape:current-layer="layer7"
     showgrid="false"
     inkscape:pagecheckerboard="true"
     inkscape:window-width="1232"
     inkscape:window-height="1048"
     inkscape:window-x="1319"
     inkscape:window-y="0"
     inkscape:window-maximized="0" />
  <metadata
     id="metadata5">
    <rdf:RDF>
      <cc:Work
         rdf:about="">
        <dc:format>image/svg+xml</dc:format>
        <dc:type
           rdf:resource="http://purl.org/dc/dcmitype/StillImage" />
        <dc:title></dc:title>
      </cc:Work>
    </rdf:RDF>
  </metadata>
  <g
     inkscape:groupmode="layer"
     id="layer2"
     inkscape:label="Layer 2"
     style="display:none">
    <path
       style="opacity:1;fill:#ffffff;fill-opacity:0;stroke:#ff00c0;stroke-width:18.89763832;stroke-miterlimit:4;stroke-dasharray:none;stroke-opacity:0"
       d="m 412.86938,1087.8195 c -39.58187,-4.0664 -75.87483,-27.3613 -96.89974,-62.1958 l -2.26337,-3.75 h 8.91204 8.91203 l 3.3662,4.75 c 1.8514,2.6125 6.54018,8.0519 10.41952,12.0876 42.45526,44.1664 113.31556,45.8047 157.44868,3.6401 4.37703,-4.1817 9.8792,-10.1625 12.22703,-13.2905 2.34783,-3.128 4.74871,-6.1372 5.33528,-6.6872 0.58657,-0.55 3.44461,-6.0433 6.3512,-12.2074 7.41476,-15.72462 10.28975,-27.42203 10.92952,-44.46882 0.81932,-21.83094 -2.3344,-37.15877 -11.35729,-55.19906 l -4.43898,-8.87526 0.27894,-12.4495 0.27894,-12.4495 5.17646,6.82476 c 11.44169,15.085 19.44297,32.62288 23.41581,51.32477 2.64709,12.46098 3.13341,34.99971 1.01413,47 -7.0021,39.64891 -32.81347,74.69221 -68.1064,92.46601 -22.10301,11.1312 -47.29844,15.9147 -71,13.4798 z"
       id="path1499"
       inkscape:connector-curvature="0"
       transform="scale(0.26458333)" />
    <path
       style="opacity:1;fill:#ffffff;fill-opacity:0;stroke:#ff00c0;stroke-width:18.89763832;stroke-miterlimit:4;stroke-dasharray:none;stroke-opacity:0"
       d="m 412.86938,1087.8195 c -39.58187,-4.0664 -75.87483,-27.3613 -96.89974,-62.1958 l -2.26337,-3.75 h 8.91204 8.91203 l 3.3662,4.75 c 1.8514,2.6125 6.54018,8.0519 10.41952,12.0876 42.45526,44.1664 113.31556,45.8047 157.44868,3.6401 4.37703,-4.1817 9.8792,-10.1625 12.22703,-13.2905 2.34783,-3.128 4.74871,-6.1372 5.33528,-6.6872 0.58657,-0.55 3.44461,-6.0433 6.3512,-12.2074 7.41476,-15.72462 10.28975,-27.42203 10.92952,-44.46882 0.81932,-21.83094 -2.3344,-37.15877 -11.35729,-55.19906 l -4.43898,-8.87526 0.27894,-12.4495 0.27894,-12.4495 5.17646,6.82476 c 11.44169,15.085 19.44297,32.62288 23.41581,51.32477 2.64709,12.46098 3.13341,34.99971 1.01413,47 -7.0021,39.64891 -32.81347,74.69221 -68.1064,92.46601 -22.10301,11.1312 -47.29844,15.9147 -71,13.4798 z"
       id="path1501"
       inkscape:connector-curvature="0"
       transform="scale(0.26458333)" />
    <path
       style="opacity:1;fill:#ffffff;fill-opacity:0;stroke:#ff00c0;stroke-width:18.89763832;stroke-miterlimit:4;stroke-dasharray:none;stroke-opacity:0"
       d="m 412.86938,1087.8195 c -39.58187,-4.0664 -75.87483,-27.3613 -96.89974,-62.1958 l -2.26337,-3.75 h 8.91204 8.91203 l 3.3662,4.75 c 1.8514,2.6125 6.54018,8.0519 10.41952,12.0876 42.45526,44.1664 113.31556,45.8047 157.44868,3.6401 4.37703,-4.1817 9.8792,-10.1625 12.22703,-13.2905 2.34783,-3.128 4.74871,-6.1372 5.33528,-6.6872 0.58657,-0.55 3.44461,-6.0433 6.3512,-12.2074 7.41476,-15.72462 10.28975,-27.42203 10.92952,-44.46882 0.81932,-21.83094 -2.3344,-37.15877 -11.35729,-55.19906 l -4.43898,-8.87526 0.27894,-12.4495 0.27894,-12.4495 5.17646,6.82476 c 11.44169,15.085 19.44297,32.62288 23.41581,51.32477 2.64709,12.46098 3.13341,34.99971 1.01413,47 -7.0021,39.64891 -32.81347,74.69221 -68.1064,92.46601 -22.10301,11.1312 -47.29844,15.9147 -71,13.4798 z"
       id="path1503"
       inkscape:connector-curvature="0"
       transform="scale(0.26458333)" />
    <path
       style="opacity:1;fill:#ffffff;fill-opacity:0;stroke:#ff00c0;stroke-width:18.89763832;stroke-miterlimit:4;stroke-dasharray:none;stroke-opacity:0"
       d="m 412.86938,1087.8195 c -39.58187,-4.0664 -75.87483,-27.3613 -96.89974,-62.1958 l -2.26337,-3.75 h 8.91204 8.91203 l 3.3662,4.75 c 1.8514,2.6125 6.54018,8.0519 10.41952,12.0876 42.45526,44.1664 113.31556,45.8047 157.44868,3.6401 4.37703,-4.1817 9.8792,-10.1625 12.22703,-13.2905 2.34783,-3.128 4.74871,-6.1372 5.33528,-6.6872 0.58657,-0.55 3.44461,-6.0433 6.3512,-12.2074 7.41476,-15.72462 10.28975,-27.42203 10.92952,-44.46882 0.81932,-21.83094 -2.3344,-37.15877 -11.35729,-55.19906 l -4.43898,-8.87526 0.27894,-12.4495 0.27894,-12.4495 5.17646,6.82476 c 11.44169,15.085 19.44297,32.62288 23.41581,51.32477 2.64709,12.46098 3.13341,34.99971 1.01413,47 -7.0021,39.64891 -32.81347,74.69221 -68.1064,92.46601 -22.10301,11.1312 -47.29844,15.9147 -71,13.4798 z"
       id="path1505"
       inkscape:connector-curvature="0"
       transform="scale(0.26458333)" />
    <path
       style="opacity:1;fill:#ffffff;fill-opacity:0;stroke:#ff00c0;stroke-width:18.89763832;stroke-miterlimit:4;stroke-dasharray:none;stroke-opacity:0"
       d="m 412.86938,1087.8195 c -39.58187,-4.0664 -75.87483,-27.3613 -96.89974,-62.1958 l -2.26337,-3.75 h 8.91204 8.91203 l 3.3662,4.75 c 1.8514,2.6125 6.54018,8.0519 10.41952,12.0876 42.45526,44.1664 113.31556,45.8047 157.44868,3.6401 4.37703,-4.1817 9.8792,-10.1625 12.22703,-13.2905 2.34783,-3.128 4.74871,-6.1372 5.33528,-6.6872 0.58657,-0.55 3.44461,-6.0433 6.3512,-12.2074 7.41476,-15.72462 10.28975,-27.42203 10.92952,-44.46882 0.81932,-21.83094 -2.3344,-37.15877 -11.35729,-55.19906 l -4.43898,-8.87526 0.27894,-12.4495 0.27894,-12.4495 5.17646,6.82476 c 11.44169,15.085 19.44297,32.62288 23.41581,51.32477 2.64709,12.46098 3.13341,34.99971 1.01413,47 -7.0021,39.64891 -32.81347,74.69221 -68.1064,92.46601 -22.10301,11.1312 -47.29844,15.9147 -71,13.4798 z"
       id="path1507"
       inkscape:connector-curvature="0"
       transform="scale(0.26458333)" />
    <path
       style="opacity:1;fill:#ffffff;fill-opacity:0;stroke:#ff00c0;stroke-width:18.89763832;stroke-miterlimit:4;stroke-dasharray:none;stroke-opacity:0"
       d="m 503.61938,970.70483 c -1.5125,-1.51361 -2.75,-2.93987 -2.75,-3.16946 0,-0.22959 -0.76016,-2.15989 -1.68924,-4.28956 -0.92908,-2.12967 -1.77283,-4.20962 -1.875,-4.62212 -0.10217,-0.4125 -0.2953,-1.0875 -0.42918,-1.5 -0.13388,-0.4125 -0.17434,-1.13487 -0.0899,-1.60526 0.0844,-0.4704 -0.26998,-1.3704 -0.78757,-2 -0.5176,-0.62961 -1.23504,-2.71974 -1.59432,-4.64474 -1.09985,-5.89296 -1.42481,-7.35275 -2.55997,-11.5 -1.15995,-4.23781 -1.57492,-6.16713 -2.36595,-11 -0.27006,-1.65 -1.22856,-7.5 -2.12998,-13 -0.90143,-5.5 -1.88486,-12.25 -2.1854,-15 -0.30054,-2.75 -0.89925,-5.45 -1.33047,-6 -0.46091,-0.58788 1.891,-2.84184 5.70686,-5.46917 l 6.49089,-4.46917 1.89739,2.46917 c 1.04356,1.35804 1.91394,3.36917 1.93417,4.46917 0.052,2.82633 2.59557,9.97033 6.06937,17.04662 2.74577,5.59328 3.23721,6.06473 6.55487,6.28817 1.9726,0.13284 4.13731,-0.21556 4.81047,-0.77423 0.8993,-0.74635 1.68652,-0.0457 2.96811,2.64185 1.57689,3.30679 1.67546,5.99447 1.02766,28.02055 l -0.71653,24.36293 -2.48799,1.95705 c -1.3684,1.07638 -3.43981,2.00191 -4.60314,2.05674 -1.90618,0.0898 -1.86816,0.18569 0.38486,0.97033 2.14265,0.7462 1.96398,0.83213 -1.25,0.60112 -2.0625,-0.14824 -3.75,0.0151 -3.75,0.363 0,1.48107 -2.70134,0.34753 -5.25,-2.20299 z"
       id="path1509"
       inkscape:connector-curvature="0"
       transform="scale(0.26458333)" />
    <path
       style="opacity:1;fill:#ffffff;fill-opacity:0;stroke:#ff00c0;stroke-width:18.89763832;stroke-miterlimit:4;stroke-dasharray:none;stroke-opacity:0"
       d="m 408.53981,1021.2026 10.17043,-0.395 3.21293,-7.7169 c 5.8985,-14.1674 9.94621,-26.2812 9.94621,-29.76663 0,-1.89771 0.43588,-3.45038 0.96862,-3.45038 0.53274,0 0.71093,-0.67151 0.39599,-1.49223 -0.31494,-0.82073 -0.0267,-4.53323 0.64042,-8.25 1.21075,-6.74499 1.64377,-10.75937 2.0773,-19.25777 0.12626,-2.475 0.49688,-4.95 0.82362,-5.5 0.32673,-0.55 0.649,-3.475 0.71616,-6.5 0.29435,-13.25777 0.22962,-13.15258 14.77389,-24.00764 l 13.104,-9.78013 1.11505,4.27101 c 0.61327,2.34906 1.42733,4.77631 1.80902,5.39389 0.38168,0.61758 0.18709,1.12287 -0.43244,1.12287 -0.61952,0 -0.88181,0.7875 -0.58287,1.75 0.29895,0.9625 0.75305,3.775 1.00911,6.25 0.25607,2.475 0.88744,6.75 1.40305,9.5 0.51561,2.75 0.96441,5.675 0.99734,6.5 0.0329,0.825 0.50982,3.3 1.05977,5.5 0.54995,2.2 1.17895,6.28668 1.39779,9.08151 0.21884,2.79483 0.74136,5.63727 1.16117,6.31653 0.41981,0.67926 0.53435,1.46395 0.25454,1.74376 -0.27981,0.27981 -0.0949,1.93737 0.41092,3.68347 0.50581,1.7461 1.14747,4.97473 1.42591,7.17473 0.27843,2.2 0.768,4.8323 1.08793,5.84955 0.31992,1.01725 0.72341,2.81725 0.89664,4 0.17322,1.18275 1.51727,7.10045 2.98676,13.15045 1.46949,6.05001 2.82071,11.90001 3.00272,13.00001 0.18201,1.1 0.42586,2 0.54188,2 0.11603,0 0.32137,1.1018 0.45632,2.4484 0.31077,3.1012 -2.11832,5.9522 -2.81159,3.3 -0.40872,-1.5637 -0.46927,-1.5506 -0.57302,0.124 -0.0959,1.5482 -0.37573,1.6569 -1.616,0.6276 -0.825,-0.6847 -1.50689,-0.8523 -1.51531,-0.3725 -0.008,0.4799 -0.46665,0.1975 -1.0183,-0.6275 -0.87356,-1.3065 -1.13758,-1.2715 -2.04614,0.271 -0.57374,0.9741 -1.49387,1.4925 -2.04472,1.1521 -0.55085,-0.3405 -1.82458,0.1258 -2.83051,1.0361 -1.61517,1.4618 -5.96198,1.6908 -37.18699,1.96 -19.44691,0.1676 -30.78133,0.127 -25.1876,-0.09 z"
       id="path1511"
       inkscape:connector-curvature="0"
       transform="scale(0.26458333)" />
    <path
       style="opacity:1;fill:#ffffff;fill-opacity:0;stroke:#ff00c0;stroke-width:18.89763832;stroke-miterlimit:4;stroke-dasharray:none;stroke-opacity:0"
       d="m 403.31586,1020.9862 9.94647,-0.6125 5.1643,-12.5284 c 7.69413,-18.66562 13.47389,-35.72691 12.74578,-37.62431 -0.48303,-1.25876 -0.2898,-1.46252 0.77703,-0.81939 1.20025,0.72356 1.21322,0.601 0.0839,-0.79215 -0.73484,-0.90648 -1.04329,-2.1219 -0.68543,-2.70094 0.57914,-0.93707 1.56981,-7.523 1.8479,-12.28482 0.0562,-0.9625 0.34327,-1.74997 0.63791,-1.74994 0.29464,4e-5 0.60816,-2.36246 0.6967,-5.25 0.0885,-2.88753 0.48821,-7.27506 0.88817,-9.75006 0.39995,-2.475 0.73029,-5.72371 0.73409,-7.21936 0.004,-1.49565 0.39161,-2.48159 0.86182,-2.19098 0.47021,0.2906 0.87248,-0.0607 0.89393,-0.78065 0.0214,-0.71995 1.93395,-2.69298 4.25,-4.38449 2.31605,-1.69152 7.62775,-5.59441 11.80378,-8.67309 l 7.59278,-5.59762 0.0663,4.38244 c 0.0364,2.41034 0.58975,5.96866 1.22959,7.90739 0.63984,1.93873 0.89048,4.38468 0.55697,5.43545 -0.3335,1.05078 0.0454,3.64534 0.84208,5.7657 0.79665,2.12037 1.4663,4.53021 1.48811,5.35521 0.0218,0.825 0.3108,3.75 0.6422,6.5 0.33139,2.75 0.74999,6.35 0.93023,8 0.18023,1.65 0.55659,3.675 0.83634,4.5 1.14792,3.38521 2.76214,12.80385 2.95232,17.22607 0.12773,2.97025 0.72194,4.92511 1.59942,5.26183 1.07739,0.41343 1.13105,0.85523 0.235,1.9349 -0.84948,1.02356 -0.86142,1.58441 -0.0444,2.08932 0.6142,0.3796 0.87517,1.31966 0.57994,2.08903 -0.29523,0.76937 -0.0743,1.39885 0.49085,1.39885 0.56519,0 0.78911,0.38593 0.49758,0.85763 -0.29152,0.47169 -0.11577,2.30209 0.39055,4.06754 1.18003,4.1145 -0.35471,8.83745 -2.33712,7.19219 -1.61325,-1.33887 -2.61769,-0.48718 -2.7117,2.29935 -0.0689,2.0434 -0.0852,2.045 -0.85204,0.083 -0.75559,-1.93309 -0.80584,-1.92424 -1.50171,0.2645 -0.39598,1.2455 -1.10129,2.0288 -1.56737,1.7408 -0.46608,-0.2881 -1.36503,1.1679 -1.99768,3.2355 -0.63264,2.0675 -1.5281,4.6592 -1.98991,5.7592 -0.46181,1.1 -1.08842,2.7799 -1.39247,3.7331 -0.33872,1.0619 -1.14843,1.5046 -2.09068,1.143 -1.39166,-0.534 -2.09318,1.1068 -1.65628,3.8739 0.0651,0.4125 -0.33158,0.75 -0.88158,0.75 -0.55,0 -1.00689,-0.5625 -1.01531,-1.25 -0.0102,-0.8328 -0.33069,-0.7512 -0.96018,0.2446 -0.80103,1.267 -5.47969,1.5125 -30.73469,1.6125 -16.3844,0.065 -25.3139,-0.1578 -19.84334,-0.4946 z"
       id="path1513"
       inkscape:connector-curvature="0"
       transform="scale(0.26458333)" />
    <path
       style="opacity:1;fill:#ffffff;fill-opacity:0;stroke:#ff00c0;stroke-width:18.89763832;stroke-miterlimit:4;stroke-dasharray:none;stroke-opacity:0"
       d="m 412.86938,1087.8195 c -39.58187,-4.0664 -75.87483,-27.3613 -96.89974,-62.1958 l -2.26337,-3.75 h 8.91204 8.91203 l 3.3662,4.75 c 1.8514,2.6125 6.54018,8.0519 10.41952,12.0876 42.45526,44.1664 113.31556,45.8047 157.44868,3.6401 4.37703,-4.1817 9.8792,-10.1625 12.22703,-13.2905 2.34783,-3.128 4.74871,-6.1372 5.33528,-6.6872 0.58657,-0.55 3.44461,-6.0433 6.3512,-12.2074 7.41476,-15.72462 10.28975,-27.42203 10.92952,-44.46882 0.81932,-21.83094 -2.3344,-37.15877 -11.35729,-55.19906 l -4.43898,-8.87526 0.27894,-12.4495 0.27894,-12.4495 5.17646,6.82476 c 11.44169,15.085 19.44297,32.62288 23.41581,51.32477 2.64709,12.46098 3.13341,34.99971 1.01413,47 -7.0021,39.64891 -32.81347,74.69221 -68.1064,92.46601 -22.10301,11.1312 -47.29844,15.9147 -71,13.4798 z"
       id="path1515"
       inkscape:connector-curvature="0"
       transform="scale(0.26458333)" />
    <path
       style="opacity:1;fill:#ffffff;fill-opacity:0;stroke:#ff00c0;stroke-width:18.89763832;stroke-miterlimit:4;stroke-dasharray:none;stroke-opacity:0"
       d="m 412.86938,1087.8195 c -39.58187,-4.0664 -75.87483,-27.3613 -96.89974,-62.1958 l -2.26337,-3.75 h 8.91204 8.91203 l 3.3662,4.75 c 1.8514,2.6125 6.54018,8.0519 10.41952,12.0876 42.45526,44.1664 113.31556,45.8047 157.44868,3.6401 4.37703,-4.1817 9.8792,-10.1625 12.22703,-13.2905 2.34783,-3.128 4.74871,-6.1372 5.33528,-6.6872 0.58657,-0.55 3.44461,-6.0433 6.3512,-12.2074 7.41476,-15.72462 10.28975,-27.42203 10.92952,-44.46882 0.81932,-21.83094 -2.3344,-37.15877 -11.35729,-55.19906 l -4.43898,-8.87526 0.27894,-12.4495 0.27894,-12.4495 5.17646,6.82476 c 11.44169,15.085 19.44297,32.62288 23.41581,51.32477 2.64709,12.46098 3.13341,34.99971 1.01413,47 -7.0021,39.64891 -32.81347,74.69221 -68.1064,92.46601 -22.10301,11.1312 -47.29844,15.9147 -71,13.4798 z"
       id="path1517"
       inkscape:connector-curvature="0"
       transform="scale(0.26458333)" />
    <path
       style="opacity:1;fill:#ffffff;fill-opacity:0;stroke:#ff00c0;stroke-width:18.89763832;stroke-miterlimit:4;stroke-dasharray:none;stroke-opacity:0"
       d="m 412.86938,1087.8195 c -39.58187,-4.0664 -75.87483,-27.3613 -96.89974,-62.1958 l -2.26337,-3.75 h 8.91204 8.91203 l 3.3662,4.75 c 1.8514,2.6125 6.54018,8.0519 10.41952,12.0876 42.45526,44.1664 113.31556,45.8047 157.44868,3.6401 4.37703,-4.1817 9.8792,-10.1625 12.22703,-13.2905 2.34783,-3.128 4.74871,-6.1372 5.33528,-6.6872 0.58657,-0.55 3.44461,-6.0433 6.3512,-12.2074 7.41476,-15.72462 10.28975,-27.42203 10.92952,-44.46882 0.81932,-21.83094 -2.3344,-37.15877 -11.35729,-55.19906 l -4.43898,-8.87526 0.27894,-12.4495 0.27894,-12.4495 5.17646,6.82476 c 11.44169,15.085 19.44297,32.62288 23.41581,51.32477 2.64709,12.46098 3.13341,34.99971 1.01413,47 -7.0021,39.64891 -32.81347,74.69221 -68.1064,92.46601 -22.10301,11.1312 -47.29844,15.9147 -71,13.4798 z"
       id="path1519"
       inkscape:connector-curvature="0"
       transform="scale(0.26458333)" />
    <path
       style="opacity:1;fill:#00004d;fill-opacity:0;stroke:#ff00c0;stroke-width:18.89763832;stroke-miterlimit:4;stroke-dasharray:none;stroke-opacity:0"
       d="m 412.86938,1087.8195 c -39.58187,-4.0664 -75.87483,-27.3613 -96.89974,-62.1958 l -2.26337,-3.75 h 8.91204 8.91203 l 3.3662,4.75 c 1.8514,2.6125 6.54018,8.0519 10.41952,12.0876 42.45526,44.1664 113.31556,45.8047 157.44868,3.6401 4.37703,-4.1817 9.8792,-10.1625 12.22703,-13.2905 2.34783,-3.128 4.74871,-6.1372 5.33528,-6.6872 0.58657,-0.55 3.44461,-6.0433 6.3512,-12.2074 7.41476,-15.72462 10.28975,-27.42203 10.92952,-44.46882 0.81932,-21.83094 -2.3344,-37.15877 -11.35729,-55.19906 l -4.43898,-8.87526 0.27894,-12.4495 0.27894,-12.4495 5.17646,6.82476 c 11.44169,15.085 19.44297,32.62288 23.41581,51.32477 2.64709,12.46098 3.13341,34.99971 1.01413,47 -7.0021,39.64891 -32.81347,74.69221 -68.1064,92.46601 -22.10301,11.1312 -47.29844,15.9147 -71,13.4798 z"
       id="path1521"
       inkscape:connector-curvature="0"
       transform="scale(0.26458333)" />
    <path
       style="opacity:1;fill:#00004d;fill-opacity:0;stroke:#ff00c0;stroke-width:18.89763832;stroke-miterlimit:4;stroke-dasharray:none;stroke-opacity:0"
       d="m 415.86938,1095.7497 c -32.18959,-2.1144 -62.0233,-15.8311 -85.55244,-39.3345 -8.68085,-8.6714 -17.35884,-20.1544 -24.99457,-33.0735 -0.93952,-1.5896 -2.01758,-1.0474 -10.5,5.2815 -9.37502,6.9949 -9.47001,7.0374 -11.51744,5.1518 -1.13544,-1.0457 -3.27294,-1.9013 -4.75,-1.9013 h -2.68555 V 780.37369 c 0,-177.27297 0.31441,-251.5 1.06527,-251.5 0.94564,0 4.03931,-6.13303 21.53542,-42.69277 l 4.39931,-9.19277 v -94.55723 -94.55723 h -10 -10 v -11.5 -11.5 h 10 10 v -7.5 -7.5 h -10 -10 v -11.5 -11.5 l 7.25,-0.006 c 3.9875,-0.003 10.9625,-0.295 15.5,-0.64822 l 8.25,-0.64221 V 130.22547 34.873691 h 3.5 3.5 v 95.499999 95.5 h 3.5 3.5 v -95.5 -95.499999 h 3.5 3.5 v 95.349179 95.34917 l 9.75,0.64565 c 12.42473,0.82277 28.44421,0.82351 39,0.002 l 8.25,-0.64243 V 130.22547 34.873691 h 3.5 3.5 v 95.499999 95.5 h 3.5 3.5 v -95.5 -95.499999 h 3.5 3.5 v 95.349179 95.34917 l 9.75,0.64565 c 12.37468,0.81946 24.48826,0.82008 35,0.002 l 8.25,-0.64243 V 130.22547 34.873691 h 3.5 3.5 v 95.499999 95.5 h 3.5 3.5 v -95.5 -95.499999 h 3.5 3.5 v 95.397559 95.39755 l 13.5,0.72305 13.5,0.72306 v 11.37939 11.37939 h -7 -7 v 7.5 7.5 h 7 7 v 11.5 11.5 h -7 -7 v 96.60699 c 0,91.59945 0.0907,96.57168 1.75,95.92591 0.9625,-0.3746 2.15723,-0.76024 2.65496,-0.85699 0.49773,-0.0967 6.48638,11.49156 13.30812,25.75181 10.45957,21.86482 12.159,26.06436 10.84504,26.79969 -2.35994,1.32069 -1.86671,2.77259 0.94188,2.77259 h 2.5 v 157.5 157.5 h -2.61501 c -2.52232,0 -2.55989,0.0841 -1.05986,2.37347 1.50797,2.30145 1.42156,2.4694 -2.84792,5.53551 -2.42169,1.73913 -4.68238,3.61397 -5.02375,4.16632 -0.34136,0.55234 2.31378,4.11492 5.90032,7.91685 16.44801,17.43576 28.31431,41.39052 33.1932,67.00785 2.4038,12.62149 2.4566,35.15081 0.11133,47.5 -9.39798,49.48571 -43.89802,89.29581 -90.99818,105.00421 -16.72178,5.5768 -33.62509,7.6221 -52.66013,6.3718 z m 32.22356,-8.449 c 26.54617,-4.3142 50.41763,-17.0367 70.07991,-37.3495 24.34954,-25.1552 36.06595,-54.28989 36.02323,-89.57751 -0.0323,-26.65878 -6.59813,-48.79748 -20.91936,-70.53574 -5.08932,-7.7251 -18.05334,-22.96426 -19.5358,-22.96426 -0.82732,0 -4.61372,2.65564 -13.76793,9.65631 -0.21802,0.16673 2.7639,3.6301 6.62648,7.6964 14.94289,15.73097 24.83172,35.04608 28.8422,56.3353 2.47978,13.16363 1.53106,36.4833 -2.00182,49.20523 -5.4433,19.60137 -14.76824,35.35437 -29.66054,50.10677 -14.51943,14.3831 -30.34236,23.3424 -51.56623,29.1979 -6.73475,1.8581 -10.45925,2.1641 -26.3437,2.1641 -15.87562,0 -19.61077,-0.3065 -26.33017,-2.1606 -31.33488,-8.6463 -55.64207,-27.241 -70.88129,-54.2233 l -4.4826,-7.9369 -5.40297,4.052 c -2.97163,2.2286 -6.07797,4.4467 -6.90297,4.929 -3.61406,2.1129 11.0736,24.0144 25.19667,37.572 29.77533,28.5831 69.27208,40.6188 111.02689,33.8328 z m -10.55794,-21.496 c 45.57399,-5.0818 82.49234,-38.5777 91.93851,-83.41544 5.87488,-27.88605 0.16656,-56.6969 -16.02861,-80.89904 -6.89209,-10.29959 -17.7273,-21.19797 -19.86228,-19.97808 -0.82932,0.47385 -38.19446,28.05542 -83.03366,61.29238 l -81.5258,60.43078 3.05997,6.0692 c 4.93221,9.7826 10.63086,17.5238 19.23127,26.1242 9.56279,9.5628 17.55271,15.1625 29.93237,20.978 18.62608,8.7499 36.03442,11.6564 56.28823,9.398 z m -141.29882,-51.3147 3.64425,-3.1163 -3.00571,-9.2506 c -4.39879,-13.53815 -6.24758,-25.74468 -6.24758,-41.24941 0,-30.10805 9.27782,-58.0105 27.21261,-81.84017 l 7.02963,-9.34017 V 722.28352 574.87369 h 8.99651 8.9965 l 0.2535,139.00719 0.25349,139.00719 6.8291,-4.58131 c 9.31321,-6.24779 22.50283,-12.77128 32.4209,-16.03514 l 8.25,-2.71493 v -127.3415 -127.3415 h 9 9 v 125.25 125.25 l 16.75,0.0848 c 13.29854,0.0673 18.91355,0.54533 27.24972,2.31982 18.96151,4.03629 38.63296,12.71557 52.84297,23.31498 l 5.34269,3.98518 5.41047,-3.72633 5.41046,-3.72633 -0.25315,-154.12607 -0.25316,-154.12605 -117.25,-0.25413 -117.25,-0.25413 v 241.06066 241.06071 l 2.86128,-1.6902 c 1.5737,-0.9296 4.50119,-3.0926 6.50552,-4.8066 z m 17.95148,-13.1163 c 6.44569,-4.50819 6.20298,-2.89746 2.78756,-18.50001 -4.14344,-18.92836 -2.16736,-43.65878 4.95065,-61.95686 2.80926,-7.22169 2.93429,-8.22498 2.93394,-23.54314 l -3.6e-4,-16 -2.42913,3 c -8.13399,10.04558 -17.83266,31.06512 -21.54381,46.69104 -5.33692,22.47131 -3.67872,53.70522 3.88146,73.11137 1.21339,3.1146 0.77186,3.246 9.41969,-2.8024 z m 93.12722,-69.00001 c 43.13707,-31.9 78.45881,-58.25725 78.49276,-58.57166 0.0994,-0.92089 -14.28325,-8.86923 -20.10106,-11.1085 -15.43643,-5.94144 -33.13577,-8.65996 -48.0872,-7.38591 l -8.75,0.74561 v 11.91023 11.91023 h -9 -9 v -9.48541 -9.48541 l -5.25,2.0627 c -12.45229,4.89245 -26.14051,14.33868 -36.14412,24.94303 l -6.60588,7.00258 v 23.98125 23.98126 h -9 -9 l -0.0894,-6.25 -0.0894,-6.25 -1.37205,5 c -3.70755,13.51099 -4.04647,31.58622 -0.87189,46.5 2.38421,11.20074 2.41065,11.25753 4.55657,9.78794 1.03438,-0.70837 37.17465,-27.38794 80.31171,-59.28794 z m -46.4455,-61.95524 c 6.1346,-4.5362 23.10548,-13.55456 27.83417,-14.79114 2.01926,-0.52805 2.16583,-1.17708 2.16583,-9.59019 v -9.02382 l -2.75,0.79255 c -11.7391,3.38321 -25.66788,10.38332 -37.5,18.84617 l -7.75,5.54314 v 11.99149 11.99148 l 5.75,-5.47665 c 3.1625,-3.01215 8.675,-7.63952 12.25,-10.28303 z m 137.35087,-5.57828 c 3.65702,-2.76844 6.64913,-5.25353 6.64913,-5.52243 0,-0.77693 -15.96735,-10.92998 -21.81019,-13.86829 -18.92291,-9.51618 -45.23304,-14.75129 -65.60651,-13.05419 l -8.5833,0.71498 v 8.94911 c 0,8.68788 0.0624,8.9293 2.13899,8.27023 4.09691,-1.30031 26.28659,-0.71604 34.93208,0.91979 14.03941,2.65642 30.96264,9.42268 41.42893,16.56415 1.65,1.12585 3.27039,2.04996 3.60087,2.05358 0.33048,0.004 3.59298,-2.2585 7.25,-5.02693 z m 18.61183,-336.71648 c -0.0205,-0.4125 -4.45047,-9.975 -9.84434,-21.25 l -9.80705,-20.5 h -93.65298 -93.65299 l -10.00267,20.84521 c -5.50146,11.46487 -10.00267,21.02737 -10.00267,21.25 0,0.22264 51.075,0.40479 113.5,0.40479 62.425,0 113.48321,-0.3375 113.4627,-0.75 z m -177.9627,-146.75 v -93.5 h -14 -14 v 93.5 93.5 h 14 14 z m 42,0 v -93.5 h -16.5 -16.5 v 93.5 93.5 h 16.5 16.5 z m 36,0 v -93.5 h -14 -14 v 93.5 93.5 h 14 14 z m 38,0 v -93.5 h -14.5 -14.5 v 93.5 93.5 h 14.5 14.5 z m 36,0 v -93.5 h -14 -14 v 93.5 93.5 h 14 14 z m -188.1925,-105.25 0.3075,-4.25 h -6.0575 -6.0575 v 4.5499 4.54991 l 5.75,-0.29991 5.75,-0.2999 z m 11.1925,0.16667 c 0,-3.21891 -0.37211,-4.46115 -1.25,-4.17288 -1.36628,0.44863 -2.22233,5.08295 -1.35595,7.34068 1.14697,2.98897 2.60595,1.21542 2.60595,-3.1678 z m 14,0.0833 c 0,-4.47619 -0.0185,-4.5 -3.5,-4.5 -3.48148,0 -3.5,0.0238 -3.5,4.5 0,4.47619 0.0185,4.5 3.5,4.5 3.48149,0 3.5,-0.0238 3.5,-4.5 z m 11,0 c 0,-3.83333 -0.29629,-4.5 -2,-4.5 -1.7037,0 -2,0.66667 -2,4.5 0,3.83333 0.2963,4.5 2,4.5 1.70371,0 2,-0.66667 2,-4.5 z m 41.8075,-0.25 0.3075,-4.25 h -16.5575 -16.5575 v 4.52477 4.52477 l 16.25,-0.27477 16.25,-0.27477 z m 11.1925,0.16667 c 0,-3.21891 -0.37212,-4.46115 -1.25,-4.17288 -1.36629,0.44863 -2.22233,5.08295 -1.35596,7.34068 1.14697,2.98897 2.60596,1.21542 2.60596,-3.1678 z m 14,0.0833 c 0,-4.47619 -0.0185,-4.5 -3.5,-4.5 -3.48148,0 -3.5,0.0238 -3.5,4.5 0,4.47619 0.0185,4.5 3.5,4.5 3.48148,0 3.5,-0.0238 3.5,-4.5 z m 11,0 c 0,-3.83333 -0.2963,-4.5 -2,-4.5 -1.7037,0 -2,0.66667 -2,4.5 0,3.83333 0.2963,4.5 2,4.5 1.7037,0 2,-0.66667 2,-4.5 z m 37.8075,-0.25 0.3075,-4.25 h -14.5575 -14.5575 v 4.52746 4.52745 l 14.25,-0.27745 14.25,-0.27746 z m 11.1925,0.1667 c 0,-3.21891 -0.37212,-4.46115 -1.25,-4.17288 -1.36629,0.44863 -2.22233,5.08295 -1.35596,7.34068 1.14697,2.98897 2.60596,1.21542 2.60596,-3.1678 z m 14,0.0833 c 0,-4.47619 -0.0185,-4.5 -3.5,-4.5 -3.48148,0 -3.5,0.0238 -3.5,4.5 0,4.47619 0.0185,4.5 3.5,4.5 3.48148,0 3.5,-0.0238 3.5,-4.5 z m 11,0 c 0,-3.83333 -0.2963,-4.5 -2,-4.5 -1.7037,0 -2,0.66667 -2,4.5 0,3.83333 0.2963,4.5 2,4.5 1.7037,0 2,-0.66667 2,-4.5 z m 16,0 c 0,-4.47619 -0.0185,-4.5 -3.5,-4.5 -3.48148,0 -3.5,0.0238 -3.5,4.5 0,4.47619 0.0185,4.5 3.5,4.5 3.48148,0 3.5,-0.0238 3.5,-4.5 z m -193,-19 c 0,-6 -0.3,-7.5 -1.5,-7.5 -1.2,0 -1.5,1.5 -1.5,7.5 0,6 0.3,7.5 1.5,7.5 1.2,0 1.5,-1.5 1.5,-7.5 z m 14,0 v -7.5 h -3.5 -3.5 v 7.5 7.5 h 3.5 3.5 z m 11,0 c 0,-6.83333 -0.17777,-7.5 -2,-7.5 -1.82222,0 -2,0.66667 -2,7.5 0,6.83333 0.17778,7.5 2,7.5 1.82223,0 2,-0.66667 2,-7.5 z m 42,0 v -7.5 h -16.5 -16.5 v 7.5 7.5 h 16.5 16.5 z m 11,0 c 0,-6 -0.3,-7.5 -1.5,-7.5 -1.2,0 -1.5,1.5 -1.5,7.5 0,6 0.3,7.5 1.5,7.5 1.2,0 1.5,-1.5 1.5,-7.5 z m 14,0 v -7.5 h -3.5 -3.5 v 7.5 7.5 h 3.5 3.5 z m 11,0 c 0,-6.83333 -0.17778,-7.5 -2,-7.5 -1.82222,0 -2,0.66667 -2,7.5 0,6.83333 0.17778,7.5 2,7.5 1.82222,0 2,-0.66667 2,-7.5 z m 38,0 v -7.5 h -14.5 -14.5 v 7.5 7.5 h 14.5 14.5 z m 11,0 c 0,-6 -0.3,-7.5 -1.5,-7.5 -1.2,0 -1.5,1.5 -1.5,7.5 0,6 0.3,7.5 1.5,7.5 1.2,0 1.5,-1.5 1.5,-7.5 z m 14,0 v -7.5 h -3.5 -3.5 v 7.5 7.5 h 3.5 3.5 z m 11,0 c 0,-6.83333 -0.17778,-7.5 -2,-7.5 -1.82222,0 -2,0.66667 -2,7.5 0,6.83333 0.17778,7.5 2,7.5 1.82222,0 2,-0.66667 2,-7.5 z m -188.1925,-19.24997 0.3075,-4.25 h -6.0575 -6.0575 v 4.5499 4.54991 l 5.75,-0.29991 5.75,-0.2999 z m 11.1925,0.75 c 0,-2.88889 -0.41666,-4 -1.5,-4 -1.03333,0 -1.5,1.03704 -1.5,3.33333 0,1.83334 0.3,3.63334 0.66667,4 1.54553,1.54554 2.33333,0.42011 2.33333,-3.33333 z m 14,0 c 0,-3.90476 -0.0833,-4 -3.5,-4 -3.41666,0 -3.5,0.0952 -3.5,4 0,3.90476 0.0833,4 3.5,4 3.41667,0 3.5,-0.0952 3.5,-4 z m 11,0 c 0,-3.33333 -0.33333,-4 -2,-4 -1.66666,0 -2,0.66667 -2,4 0,3.33333 0.33334,4 2,4 1.66667,0 2,-0.66667 2,-4 z m 41.8075,-0.75 0.3075,-4.25 h -16.5575 -16.5575 v 4.52477 4.52477 l 16.25,-0.27477 16.25,-0.27477 z m 11.1925,0.75 c 0,-2.88889 -0.41667,-4 -1.5,-4 -1.03333,0 -1.5,1.03704 -1.5,3.33333 0,1.83334 0.3,3.63334 0.66667,4 1.54553,1.54554 2.33333,0.42011 2.33333,-3.33333 z m 14,0 c 0,-3.90476 -0.0833,-4 -3.5,-4 -3.41667,0 -3.5,0.0952 -3.5,4 0,3.90476 0.0833,4 3.5,4 3.41667,0 3.5,-0.0952 3.5,-4 z m 11,0 c 0,-3.33333 -0.33333,-4 -2,-4 -1.66667,0 -2,0.66667 -2,4 0,3.33333 0.33333,4 2,4 1.66667,0 2,-0.66667 2,-4 z m 37.8075,-0.75 0.3075,-4.25 h -14.5575 -14.5575 v 4.52746 4.52745 l 14.25,-0.27745 14.25,-0.27746 z m 11.1925,0.75 c 0,-2.88889 -0.41667,-4 -1.5,-4 -1.03333,0 -1.5,1.03704 -1.5,3.33333 0,1.83334 0.3,3.63334 0.66667,4 1.54553,1.54554 2.33333,0.42011 2.33333,-3.33333 z m 14,0 c 0,-3.90476 -0.0833,-4 -3.5,-4 -3.41667,0 -3.5,0.0952 -3.5,4 0,3.90476 0.0833,4 3.5,4 3.41667,0 3.5,-0.0952 3.5,-4 z m 11,0 c 0,-3.33333 -0.33333,-4 -2,-4 -1.66667,0 -2,0.66667 -2,4 0,3.33333 0.33333,4 2,4 1.66667,0 2,-0.66667 2,-4 z m 16,-0.5 c 0,-4.47619 -0.0185,-4.5 -3.5,-4.5 -3.48148,0 -3.5,0.0238 -3.5,4.5 0,4.47619 0.0185,4.5 3.5,4.5 3.48148,0 3.5,-0.0238 3.5,-4.5 z"
       id="path1523"
       inkscape:connector-curvature="0"
       transform="scale(0.26458333)" />
    <path
       style="opacity:1;fill:#00004d;fill-opacity:0;stroke:#ff00c0;stroke-width:18.89763832;stroke-miterlimit:4;stroke-dasharray:none;stroke-opacity:0"
       d="m 412.86938,1087.8195 c -39.58187,-4.0664 -75.87483,-27.3613 -96.89974,-62.1958 l -2.26337,-3.75 h 8.91204 8.91203 l 3.3662,4.75 c 1.8514,2.6125 6.54018,8.0519 10.41952,12.0876 42.45526,44.1664 113.31556,45.8047 157.44868,3.6401 4.37703,-4.1817 9.8792,-10.1625 12.22703,-13.2905 2.34783,-3.128 4.74871,-6.1372 5.33528,-6.6872 0.58657,-0.55 3.44461,-6.0433 6.3512,-12.2074 7.41476,-15.72462 10.28975,-27.42203 10.92952,-44.46882 0.81932,-21.83094 -2.3344,-37.15877 -11.35729,-55.19906 l -4.43898,-8.87526 0.27894,-12.4495 0.27894,-12.4495 5.17646,6.82476 c 11.44169,15.085 19.44297,32.62288 23.41581,51.32477 2.64709,12.46098 3.13341,34.99971 1.01413,47 -7.0021,39.64891 -32.81347,74.69221 -68.1064,92.46601 -22.10301,11.1312 -47.29844,15.9147 -71,13.4798 z"
       id="path1525"
       inkscape:connector-curvature="0"
       transform="scale(0.26458333)" />
    <path
       style="opacity:1;fill:#00004d;fill-opacity:0;stroke:#ff00c0;stroke-width:18.89763832;stroke-miterlimit:4;stroke-dasharray:none;stroke-opacity:0"
       d="m 412.86938,1087.8195 c -39.58187,-4.0664 -75.87483,-27.3613 -96.89974,-62.1958 l -2.26337,-3.75 h 8.91204 8.91203 l 3.3662,4.75 c 1.8514,2.6125 6.54018,8.0519 10.41952,12.0876 42.45526,44.1664 113.31556,45.8047 157.44868,3.6401 4.37703,-4.1817 9.8792,-10.1625 12.22703,-13.2905 2.34783,-3.128 4.74871,-6.1372 5.33528,-6.6872 0.58657,-0.55 3.44461,-6.0433 6.3512,-12.2074 7.41476,-15.72462 10.28975,-27.42203 10.92952,-44.46882 0.81932,-21.83094 -2.3344,-37.15877 -11.35729,-55.19906 l -4.43898,-8.87526 0.27894,-12.4495 0.27894,-12.4495 5.17646,6.82476 c 11.44169,15.085 19.44297,32.62288 23.41581,51.32477 2.64709,12.46098 3.13341,34.99971 1.01413,47 -7.0021,39.64891 -32.81347,74.69221 -68.1064,92.46601 -22.10301,11.1312 -47.29844,15.9147 -71,13.4798 z"
       id="path1527"
       inkscape:connector-curvature="0"
       transform="scale(0.26458333)" />
    <path
       style="opacity:1;fill:#00004d;fill-opacity:0;stroke:#ff00c0;stroke-width:18.89763832;stroke-miterlimit:4;stroke-dasharray:none;stroke-opacity:0"
       d="m 412.86938,1087.8195 c -39.58187,-4.0664 -75.87483,-27.3613 -96.89974,-62.1958 l -2.26337,-3.75 h 8.91204 8.91203 l 3.3662,4.75 c 1.8514,2.6125 6.54018,8.0519 10.41952,12.0876 42.45526,44.1664 113.31556,45.8047 157.44868,3.6401 4.37703,-4.1817 9.8792,-10.1625 12.22703,-13.2905 2.34783,-3.128 4.74871,-6.1372 5.33528,-6.6872 0.58657,-0.55 3.44461,-6.0433 6.3512,-12.2074 7.41476,-15.72462 10.28975,-27.42203 10.92952,-44.46882 0.81932,-21.83094 -2.3344,-37.15877 -11.35729,-55.19906 l -4.43898,-8.87526 0.27894,-12.4495 0.27894,-12.4495 5.17646,6.82476 c 11.44169,15.085 19.44297,32.62288 23.41581,51.32477 2.64709,12.46098 3.13341,34.99971 1.01413,47 -7.0021,39.64891 -32.81347,74.69221 -68.1064,92.46601 -22.10301,11.1312 -47.29844,15.9147 -71,13.4798 z"
       id="path1529"
       inkscape:connector-curvature="0"
       transform="scale(0.26458333)" />
    <path
       style="opacity:1;fill:#00004d;fill-opacity:0;stroke:#ff00c0;stroke-width:18.89763832;stroke-miterlimit:4;stroke-dasharray:none;stroke-opacity:0"
       d="m 412.86938,1087.8195 c -39.58187,-4.0664 -75.87483,-27.3613 -96.89974,-62.1958 l -2.26337,-3.75 h 8.91204 8.91203 l 3.3662,4.75 c 1.8514,2.6125 6.54018,8.0519 10.41952,12.0876 42.45526,44.1664 113.31556,45.8047 157.44868,3.6401 4.37703,-4.1817 9.8792,-10.1625 12.22703,-13.2905 2.34783,-3.128 4.74871,-6.1372 5.33528,-6.6872 0.58657,-0.55 3.44461,-6.0433 6.3512,-12.2074 7.41476,-15.72462 10.28975,-27.42203 10.92952,-44.46882 0.81932,-21.83094 -2.3344,-37.15877 -11.35729,-55.19906 l -4.43898,-8.87526 0.27894,-12.4495 0.27894,-12.4495 5.17646,6.82476 c 11.44169,15.085 19.44297,32.62288 23.41581,51.32477 2.64709,12.46098 3.13341,34.99971 1.01413,47 -7.0021,39.64891 -32.81347,74.69221 -68.1064,92.46601 -22.10301,11.1312 -47.29844,15.9147 -71,13.4798 z"
       id="path1531"
       inkscape:connector-curvature="0"
       transform="scale(0.26458333)" />
    <path
       style="opacity:1;fill:#00004d;fill-opacity:0;stroke:#ff00c0;stroke-width:18.89763832;stroke-miterlimit:4;stroke-dasharray:none;stroke-opacity:0"
       d="m 412.86938,1087.8195 c -39.58187,-4.0664 -75.87483,-27.3613 -96.89974,-62.1958 l -2.26337,-3.75 h 8.91204 8.91203 l 3.3662,4.75 c 1.8514,2.6125 6.54018,8.0519 10.41952,12.0876 42.45526,44.1664 113.31556,45.8047 157.44868,3.6401 4.37703,-4.1817 9.8792,-10.1625 12.22703,-13.2905 2.34783,-3.128 4.74871,-6.1372 5.33528,-6.6872 0.58657,-0.55 3.44461,-6.0433 6.3512,-12.2074 7.41476,-15.72462 10.28975,-27.42203 10.92952,-44.46882 0.81932,-21.83094 -2.3344,-37.15877 -11.35729,-55.19906 l -4.43898,-8.87526 0.27894,-12.4495 0.27894,-12.4495 5.17646,6.82476 c 11.44169,15.085 19.44297,32.62288 23.41581,51.32477 2.64709,12.46098 3.13341,34.99971 1.01413,47 -7.0021,39.64891 -32.81347,74.69221 -68.1064,92.46601 -22.10301,11.1312 -47.29844,15.9147 -71,13.4798 z"
       id="path1533"
       inkscape:connector-curvature="0"
       transform="scale(0.26458333)" />
    <path
       style="opacity:1;fill:#00004d;fill-opacity:0;stroke:#ff00c0;stroke-width:18.89763832;stroke-miterlimit:4;stroke-dasharray:none;stroke-opacity:0"
       d="m 412.86938,1087.8195 c -39.58187,-4.0664 -75.87483,-27.3613 -96.89974,-62.1958 l -2.26337,-3.75 h 8.91204 8.91203 l 3.3662,4.75 c 1.8514,2.6125 6.54018,8.0519 10.41952,12.0876 42.45526,44.1664 113.31556,45.8047 157.44868,3.6401 4.37703,-4.1817 9.8792,-10.1625 12.22703,-13.2905 2.34783,-3.128 4.74871,-6.1372 5.33528,-6.6872 0.58657,-0.55 3.44461,-6.0433 6.3512,-12.2074 7.41476,-15.72462 10.28975,-27.42203 10.92952,-44.46882 0.81932,-21.83094 -2.3344,-37.15877 -11.35729,-55.19906 l -4.43898,-8.87526 0.27894,-12.4495 0.27894,-12.4495 5.17646,6.82476 c 11.44169,15.085 19.44297,32.62288 23.41581,51.32477 2.64709,12.46098 3.13341,34.99971 1.01413,47 -7.0021,39.64891 -32.81347,74.69221 -68.1064,92.46601 -22.10301,11.1312 -47.29844,15.9147 -71,13.4798 z"
       id="path1535"
       inkscape:connector-curvature="0"
       transform="scale(0.26458333)" />
    <path
       style="opacity:1;fill:#00004d;fill-opacity:0;stroke:#ff00c0;stroke-width:18.89763832;stroke-miterlimit:4;stroke-dasharray:none;stroke-opacity:0"
       d="m 412.86938,1087.8195 c -39.58187,-4.0664 -75.87483,-27.3613 -96.89974,-62.1958 l -2.26337,-3.75 h 8.91204 8.91203 l 3.3662,4.75 c 1.8514,2.6125 6.54018,8.0519 10.41952,12.0876 42.45526,44.1664 113.31556,45.8047 157.44868,3.6401 4.37703,-4.1817 9.8792,-10.1625 12.22703,-13.2905 2.34783,-3.128 4.74871,-6.1372 5.33528,-6.6872 0.58657,-0.55 3.44461,-6.0433 6.3512,-12.2074 7.41476,-15.72462 10.28975,-27.42203 10.92952,-44.46882 0.81932,-21.83094 -2.3344,-37.15877 -11.35729,-55.19906 l -4.43898,-8.87526 0.27894,-12.4495 0.27894,-12.4495 5.17646,6.82476 c 11.44169,15.085 19.44297,32.62288 23.41581,51.32477 2.64709,12.46098 3.13341,34.99971 1.01413,47 -7.0021,39.64891 -32.81347,74.69221 -68.1064,92.46601 -22.10301,11.1312 -47.29844,15.9147 -71,13.4798 z"
       id="path1537"
       inkscape:connector-curvature="0"
       transform="scale(0.26458333)" />
    <path
       style="opacity:1;fill:#00004d;fill-opacity:0;stroke:#ff00c0;stroke-width:18.89763832;stroke-miterlimit:4;stroke-dasharray:none;stroke-opacity:0"
       d="m 412.86938,1087.8195 c -39.58187,-4.0664 -75.87483,-27.3613 -96.89974,-62.1958 l -2.26337,-3.75 h 8.91204 8.91203 l 3.3662,4.75 c 1.8514,2.6125 6.54018,8.0519 10.41952,12.0876 42.45526,44.1664 113.31556,45.8047 157.44868,3.6401 4.37703,-4.1817 9.8792,-10.1625 12.22703,-13.2905 2.34783,-3.128 4.74871,-6.1372 5.33528,-6.6872 0.58657,-0.55 3.44461,-6.0433 6.3512,-12.2074 7.41476,-15.72462 10.28975,-27.42203 10.92952,-44.46882 0.81932,-21.83094 -2.3344,-37.15877 -11.35729,-55.19906 l -4.43898,-8.87526 0.27894,-12.4495 0.27894,-12.4495 5.17646,6.82476 c 11.44169,15.085 19.44297,32.62288 23.41581,51.32477 2.64709,12.46098 3.13341,34.99971 1.01413,47 -7.0021,39.64891 -32.81347,74.69221 -68.1064,92.46601 -22.10301,11.1312 -47.29844,15.9147 -71,13.4798 z"
       id="path1539"
       inkscape:connector-curvature="0"
       transform="scale(0.26458333)" />
    <path
       style="opacity:1;fill:#00004d;fill-opacity:0;stroke:#ff00c0;stroke-width:18.89763832;stroke-miterlimit:4;stroke-dasharray:none;stroke-opacity:0"
       d="m 412.86938,1087.8195 c -39.58187,-4.0664 -75.87483,-27.3613 -96.89974,-62.1958 l -2.26337,-3.75 h 8.91204 8.91203 l 3.3662,4.75 c 1.8514,2.6125 6.54018,8.0519 10.41952,12.0876 42.45526,44.1664 113.31556,45.8047 157.44868,3.6401 4.37703,-4.1817 9.8792,-10.1625 12.22703,-13.2905 2.34783,-3.128 4.74871,-6.1372 5.33528,-6.6872 0.58657,-0.55 3.44461,-6.0433 6.3512,-12.2074 7.41476,-15.72462 10.28975,-27.42203 10.92952,-44.46882 0.81932,-21.83094 -2.3344,-37.15877 -11.35729,-55.19906 l -4.43898,-8.87526 0.27894,-12.4495 0.27894,-12.4495 5.17646,6.82476 c 11.44169,15.085 19.44297,32.62288 23.41581,51.32477 2.64709,12.46098 3.13341,34.99971 1.01413,47 -7.0021,39.64891 -32.81347,74.69221 -68.1064,92.46601 -22.10301,11.1312 -47.29844,15.9147 -71,13.4798 z"
       id="path1541"
       inkscape:connector-curvature="0"
       transform="scale(0.26458333)" />
  </g>
  <g
     inkscape:groupmode="layer"
     id="layer6"
     inkscape:label="Layer 3"
     style="display:none">
    <path
       style="opacity:1;fill:#ffffff;fill-opacity:1;stroke:#ffffff;stroke-width:22.67716599;stroke-miterlimit:4;stroke-dasharray:none;stroke-opacity:1"
       d="m 289.04018,743.60995 -0.23381,-203.5 h 116 116 v 152.69003 c 0,152.17813 -0.014,152.70265 -4.166,156.46021 -4.09096,3.70226 -4.29812,3.68846 -11.5,-0.76636 -27.03447,-16.72254 -51.5287,-24.28798 -78.834,-24.34916 l -15.5,-0.0347 v -125 -125 h -10.98519 -10.9852 l -0.5148,127.05365 -0.51481,127.05365 -15.23952,6.62468 c -8.38173,3.64358 -18.05673,8.63072 -21.5,11.08254 l -6.26048,4.45786 V 712.24614 574.10995 h -11 -11 v 148.75511 c 0,132.14171 -0.34742,149.04345 -3.1108,151.33685 -9.584,7.954 -25.23926,42.23048 -28.7323,62.90804 -0.98062,5.80494 -1.78737,-75.36956 -1.92309,-193.5 z m 187.76619,-45.5 v -124 h -11 -11 v 122.66667 c 0,67.46667 0.6,123.26667 1.33334,123.99999 0.73333,0.73334 5.68333,1.33334 11,1.33334 h 9.66666 z"
       id="path1579"
       inkscape:connector-curvature="0"
       transform="scale(0.26458333)" />
    <path
       style="opacity:1;fill:#ffffff;fill-opacity:1;stroke:#ffffff;stroke-width:22.67716599;stroke-miterlimit:4;stroke-dasharray:none;stroke-opacity:1"
       d="m 324.79126,988.77662 c -0.008,-0.91667 -0.94634,-7.40579 -2.08451,-14.42027 -1.13818,-7.01448 -1.47919,-16.68948 -0.75781,-21.5 l 1.31161,-8.7464 h 10.77291 10.77291 v -24.70988 -24.70989 l 10.66535,-10.08684 c 8.77935,-8.30315 27.97368,-20.49339 32.26816,-20.49339 0.58657,0 1.06649,3.6 1.06649,8 v 8 h 10.90019 10.9002 l 0.5998,-11.5 0.59981,-11.5 17,0.16656 c 10.47832,0.10265 21.21991,1.54022 28,3.74728 11.52925,3.75302 26.06481,11.0209 25.90853,12.95444 -0.0954,1.18022 -153.08437,114.6304 -156.15555,115.79839 -0.96414,0.36667 -1.75978,-0.0833 -1.76809,-1 z"
       id="path1581"
       inkscape:connector-curvature="0"
       transform="scale(0.26458333)" />
    <path
       style="opacity:1;fill:#ffffff;fill-opacity:1;stroke:#ffffff;stroke-width:22.67716599;stroke-miterlimit:4;stroke-dasharray:none;stroke-opacity:1"
       d="m 305.95868,1002.3564 c -3.10819,-5.02917 -7.0968,-29.19039 -7.12275,-43.14645 -0.023,-12.36666 -0.56289,-15.36666 -2.42956,-13.5 -7.69232,7.69232 -7.6,10.14128 -7.6,-201.6 v -204 h 116.01242 116.01242 l -0.51242,153.44278 -0.51242,153.44278 -105.92401,78.55722 C 355.62416,968.75921 307.75227,1004.11 307.5004,1004.11 c -0.25188,0 -0.94565,-0.7891 -1.54172,-1.7536 z m 38.84769,-243.24645 v -185 h -11 -11 v 170.75576 c 0,147.25844 -0.41282,171.74376 -3,177.93576 -1.65,3.949 -3,8.10892 -3,9.24424 0,1.13534 1.35,2.06424 3,2.06424 1.86667,0 3,1.88888 3,5 0,4.72728 0.6,5 11,5 h 11 z m 66,-32 v -153 h -11 -11 v 153 153 h 11 11 z m 66,-29 v -124 h -11 -11 v 122.66667 c 0,67.46667 0.6,123.26667 1.33334,123.99999 0.73333,0.73334 5.68333,1.33334 11,1.33334 h 9.66666 z"
       id="path1583"
       inkscape:connector-curvature="0"
       transform="scale(0.26458333)" />
    <path
       style="opacity:1;fill:#ffffff;fill-opacity:1;stroke:#ffffff;stroke-width:22.67716599;stroke-miterlimit:4;stroke-dasharray:none;stroke-opacity:1"
       d=""
       id="path1585"
       inkscape:connector-curvature="0"
       transform="scale(0.26458333)" />
    <path
       style="opacity:1;fill:#ffffff;fill-opacity:1;stroke:#ffffff;stroke-width:22.67716599;stroke-miterlimit:4;stroke-dasharray:none;stroke-opacity:1"
       d="m 292.80637,526.88525 c 0,-0.67359 4.18579,-10.12359 9.30175,-21 l 9.30174,-19.7753 h 91.68002 91.68003 l 10.01822,19.96367 c 5.51004,10.98001 10.01824,20.43001 10.01824,21 0,0.56998 -49.95,1.03633 -111,1.03633 -61.05,0 -111,-0.55111 -111,-1.2247 z"
       id="path1587"
       inkscape:connector-curvature="0"
       transform="scale(0.26458333)" />
  </g>
  <g
     inkscape:label="Layer 1"
     inkscape:groupmode="layer"
     id="layer1"
     style="display:none">
    <path
       style="fill:none;stroke:#000000;stroke-width:3;stroke-linecap:butt;stroke-linejoin:miter;stroke-miterlimit:4;stroke-dasharray:none;stroke-opacity:1"
       d="m 139.45778,141.31077 v 83.56661"
       id="path892"
       inkscape:connector-curvature="0" />
    <path
       style="fill:none;stroke:#000000;stroke-width:3;stroke-linecap:butt;stroke-linejoin:miter;stroke-miterlimit:4;stroke-dasharray:none;stroke-opacity:1"
       d="M 139.45778,141.31077 H 74.429836 v 131.76715"
       id="path894"
       inkscape:connector-curvature="0" />
    <path
       style="fill:none;stroke:#000000;stroke-width:3;stroke-linecap:butt;stroke-linejoin:miter;stroke-miterlimit:4;stroke-dasharray:none;stroke-opacity:1"
       d="M 139.45778,224.87738 74.429836,273.07791"
       id="path896"
       inkscape:connector-curvature="0" />
    <path
       style="fill:none;stroke:#000000;stroke-width:5;stroke-linecap:butt;stroke-linejoin:miter;stroke-miterlimit:4;stroke-dasharray:none;stroke-opacity:1"
       d="m 105.83259,151.98516 v 80.8223"
       id="path898"
       inkscape:connector-curvature="0" />
    <path
       inkscape:connector-curvature="0"
       id="path909"
       d="m 123.2952,151.98516 v 65.10685"
       style="fill:none;stroke:#000000;stroke-width:5;stroke-linecap:butt;stroke-linejoin:miter;stroke-miterlimit:4;stroke-dasharray:none;stroke-opacity:1"
       sodipodi:nodetypes="cc" />
    <path
       style="fill:none;stroke:#000000;stroke-width:5;stroke-linecap:butt;stroke-linejoin:miter;stroke-miterlimit:4;stroke-dasharray:none;stroke-opacity:1"
       d="m 88.370046,151.98516 v 97.66028"
       id="path911"
       inkscape:connector-curvature="0"
       sodipodi:nodetypes="cc" />
    <path
       style="fill:none;stroke:#000000;stroke-width:3;stroke-linecap:butt;stroke-linejoin:miter;stroke-miterlimit:4;stroke-dasharray:none;stroke-opacity:1"
       d="m 74.429836,141.31077 6.766645,-14.18728"
       id="path913"
       inkscape:connector-curvature="0" />
    <path
       inkscape:connector-curvature="0"
       id="path924"
       d="m 139.07734,141.31077 -6.76668,-14.18728"
       style="fill:none;stroke:#000000;stroke-width:3;stroke-linecap:butt;stroke-linejoin:miter;stroke-miterlimit:4;stroke-dasharray:none;stroke-opacity:1" />
    <path
       style="fill:none;stroke:#000000;stroke-width:3;stroke-linecap:butt;stroke-linejoin:miter;stroke-miterlimit:4;stroke-dasharray:none;stroke-opacity:1"
       d="M 81.196481,127.12349 H 132.31066"
       id="path926"
       inkscape:connector-curvature="0" />
    <path
       style="opacity:1;fill:#ff0000;fill-opacity:0;stroke:#000000;stroke-width:22.90739632;stroke-miterlimit:4;stroke-dasharray:none;stroke-opacity:0"
       d="m 288.68123,778.26363 v -238.396 h 116.16755 116.16754 v 153.13836 153.13836 l -114.9929,85.25764 c -63.2461,46.89171 -115.52149,85.25761 -116.16754,85.25761 -0.64606,0 -1.17465,-107.27817 -1.17465,-238.39597 z m 56.56855,-19.19289 V 574.21282 H 334.1381 323.02642 v 184.85792 184.85791 h 11.11168 11.11168 z m 64.64976,-31.31473 V 574.21282 h -10.10153 -10.10152 v 153.54319 153.54318 h 10.10152 10.10153 z m 66.67007,-30.30458 V 574.21282 h -10.10153 -10.10152 v 123.23861 123.23861 h 10.10152 10.10153 z"
       id="path928"
       inkscape:connector-curvature="0"
       transform="scale(0.26458333)" />
    <path
       style="opacity:1;fill:#ff0000;fill-opacity:0;stroke:#000000;stroke-width:22.90739632;stroke-miterlimit:4;stroke-dasharray:none;stroke-opacity:0"
       d="m 288.68123,778.26363 v -238.396 h 116.16755 116.16754 v 153.13836 153.13836 l -114.9929,85.25764 c -63.2461,46.89171 -115.52149,85.25761 -116.16754,85.25761 -0.64606,0 -1.17465,-107.27817 -1.17465,-238.39597 z m 56.56855,-19.19289 V 574.21282 H 334.1381 323.02642 v 184.85792 184.85791 h 11.11168 11.11168 z m 64.64976,-31.31473 V 574.21282 h -10.10153 -10.10152 v 153.54319 153.54318 h 10.10152 10.10153 z m 66.67007,-30.30458 V 574.21282 h -10.10153 -10.10152 v 123.23861 123.23861 h 10.10152 10.10153 z"
       id="path930"
       inkscape:connector-curvature="0"
       transform="scale(0.26458333)" />
    <rect
       style="opacity:1;fill:#ff0000;fill-opacity:0;stroke:#000000;stroke-width:2.14500284;stroke-miterlimit:4;stroke-dasharray:none;stroke-opacity:1"
       id="rect958"
       width="59.188831"
       height="4.1313095"
       x="75.90451"
       y="71.043076" />
    <rect
       y="60.988899"
       x="75.90451"
       height="4.1313095"
       width="59.188831"
       id="rect960"
       style="opacity:1;fill:#ff0000;fill-opacity:0;stroke:#000000;stroke-width:2.14500284;stroke-miterlimit:4;stroke-dasharray:none;stroke-opacity:1" />
    <path
       style="opacity:1;fill:#ffffff;fill-opacity:1;stroke:#000000;stroke-width:8.01758862;stroke-miterlimit:4;stroke-dasharray:none;stroke-opacity:0"
       d="m 286.9658,780.10921 v -240.149 h 117.02617 117.02617 l -0.0457,153.61895 -0.0457,153.61894 -115.53934,85.55992 c -63.5467,47.05796 -116.18791,85.99648 -116.98052,86.53008 l -1.44112,0.9701 z m 56.56854,-21.29945 V 573.90133 h -9.54594 -9.54594 v 184.90843 184.90842 h 9.54594 9.54594 z m 66.46804,-31.81981 V 573.90133 h -9.8995 -9.89949 v 153.08862 153.08862 h 9.89949 9.8995 z m 65.76093,-29.69848 V 573.90133 h -9.8995 -9.89949 V 697.29147 820.6816 h 9.89949 9.8995 z"
       id="path1629"
       inkscape:connector-curvature="0"
       transform="scale(0.26458333)" />
  </g>
  <g
     inkscape:groupmode="layer"
     id="layer7"
     inkscape:label="temp"
     style="display:inline">
    <g
       style="display:inline"
       id="g1638"
       inkscape:export-filename="C:\Users\Charlie Wan\Documents\Shields Up\Assets\Weapon\MiniGun\MiniAmmoRing.png"
       inkscape:export-xdpi="96"
       inkscape:export-ydpi="96">
      <path
         transform="scale(0.26458333)"
         inkscape:connector-curvature="0"
         id="path1627"
         d="m 416.01278,1088.2214 c -10.42615,-1.1885 -15.70031,-2.0951 -22.37322,-3.8458 -30.33587,-7.959 -56.35719,-26.517 -73.78525,-52.6226 -5.10877,-7.6525 -8.70552,-14.2002 -8.09636,-14.739 0.17057,-0.1509 2.98954,-2.2246 6.26436,-4.6083 l 5.95422,-4.334 2.59202,4.7769 c 6.3085,11.6262 12.32324,19.4978 22.00928,28.8039 42.59584,40.925 109.22009,41.7414 152.99487,1.8748 17.52188,-15.9576 29.49371,-37.1697 34.38143,-60.91825 1.82834,-8.88355 2.49763,-25.99273 1.36791,-34.96797 -3.18839,-25.33072 -14.45646,-48.65153 -31.75241,-65.71598 l -4.93706,-4.87098 6.10351,-4.49818 c 3.35694,-2.474 6.41319,-4.49819 6.79167,-4.49819 0.83293,0 6.93435,6.43775 12.06298,12.72793 12.42607,15.24034 21.8284,35.50178 25.97709,55.97896 1.40793,6.94933 1.62368,10.12821 1.62368,23.9241 0,13.82047 -0.21441,16.96855 -1.63263,23.97089 -5.89959,29.12877 -21.05667,55.13567 -42.73508,73.32587 -20.46427,17.1715 -44.28153,27.2982 -70.43528,29.9477 -6.87142,0.6961 -17.58622,0.8341 -22.37573,0.2882 z"
         style="opacity:1;fill:#ffffff;fill-opacity:1;stroke:#000000;stroke-width:8.01758862;stroke-miterlimit:4;stroke-dasharray:none;stroke-opacity:0" />
      <circle
         r="2.0579753"
         cy="273.02054"
         cx="87.151215"
         id="path1631"
         style="opacity:1;fill:#000000;fill-opacity:1;stroke:#000000;stroke-width:3;stroke-miterlimit:4;stroke-dasharray:none;stroke-opacity:0" />
      <circle
         style="opacity:1;fill:#000000;fill-opacity:1;stroke:#000000;stroke-width:3;stroke-miterlimit:4;stroke-dasharray:none;stroke-opacity:0"
         id="circle1633"
         cx="139.22607"
         cy="236.57036"
         r="2.0579753" />
    </g>
    <circle
       style="display:inline;opacity:1;fill:#ff0000;fill-opacity:0;stroke:#000000;stroke-width:2.09320998;stroke-miterlimit:4;stroke-dasharray:none;stroke-opacity:1"
       id="path963"
       cx="112.70044"
       cy="254.2003"
       r="34.965706"
       inkscape:export-filename="C:\Users\Charlie Wan\Documents\Shields Up\Assets\Weapon\MiniGun\MiniAmmoRing.png"
       inkscape:export-xdpi="96"
       inkscape:export-ydpi="96" />
    <circle
       r="28.737656"
       cy="254.2003"
       cx="112.70044"
       id="circle980"
       style="display:inline;opacity:1;fill:#ff0000;fill-opacity:0;stroke:#000000;stroke-width:1.72037005;stroke-miterlimit:4;stroke-dasharray:none;stroke-opacity:1"
       inkscape:export-filename="C:\Users\Charlie Wan\Documents\Shields Up\Assets\Weapon\MiniGun\MiniAmmoRing.png"
       inkscape:export-xdpi="96"
       inkscape:export-ydpi="96" />
    <rect
       style="display:inline;opacity:1;fill:#ff0000;fill-opacity:0;stroke:#000000;stroke-width:2;stroke-miterlimit:4;stroke-dasharray:none;stroke-opacity:1"
       id="rect946"
       width="3.7417734"
       height="67.886459"
       x="83.92263"
       y="7.338932" />
    <path
       style="display:inline;opacity:1;fill:#ffffff;fill-opacity:1;stroke:#000000;stroke-width:16.03517723;stroke-miterlimit:4;stroke-dasharray:none;stroke-opacity:0"
       d="M 312.15526,381.64918 V 289.0182 h 12.72792 12.72792 v 92.63098 92.63099 h -12.72792 -12.72792 z"
       id="path1613"
       inkscape:connector-curvature="0"
       transform="scale(0.26458333)" />
    <path
       style="display:inline;opacity:1;fill:#ffffff;fill-opacity:1;stroke:#000000;stroke-width:8.01758862;stroke-miterlimit:4;stroke-dasharray:none;stroke-opacity:0"
       d="M 321.61403,128.07051 V 31.550436 h 2.82843 2.82842 v 96.520074 96.52008 h -2.82842 -2.82843 z"
       id="path1621"
       inkscape:connector-curvature="0"
       transform="scale(0.26458333)" />
    <rect
       style="display:inline;opacity:1;fill:#ff0000;fill-opacity:0;stroke:#000000;stroke-width:2.57507777;stroke-miterlimit:4;stroke-dasharray:none;stroke-opacity:1"
       id="rect952"
       width="9.6751585"
       height="66.243553"
       x="101.83401"
       y="60.879929" />
    <rect
       style="display:inline;opacity:1;fill:#ff0000;fill-opacity:0;stroke:#000000;stroke-width:2;stroke-miterlimit:4;stroke-dasharray:none;stroke-opacity:1"
       id="rect954"
       width="3.7417734"
       height="67.886459"
       x="104.56013"
       y="7.338932" />
    <path
       style="display:inline;opacity:1;fill:#ffffff;fill-opacity:1;stroke:#000000;stroke-width:16.03517723;stroke-miterlimit:4;stroke-dasharray:none;stroke-opacity:0"
       d="M 389.937,381.64918 V 289.0182 h 12.72793 12.72792 v 92.63098 92.63099 H 402.66493 389.937 Z"
       id="path1615"
       inkscape:connector-curvature="0"
       transform="scale(0.26458333)" />
    <path
       style="display:inline;opacity:1;fill:#ffffff;fill-opacity:1;stroke:#000000;stroke-width:8.01758862;stroke-miterlimit:4;stroke-dasharray:none;stroke-opacity:0"
       d="M 399.39577,128.07051 V 31.550436 h 2.82843 2.82843 v 96.520074 96.52008 h -2.82843 -2.82843 z"
       id="path1623"
       inkscape:connector-curvature="0"
       transform="scale(0.26458333)" />
    <rect
       y="60.879929"
       x="121.41317"
       height="66.243553"
       width="9.6751585"
       id="rect948"
       style="display:inline;opacity:1;fill:#ff0000;fill-opacity:0;stroke:#000000;stroke-width:2.57507777;stroke-miterlimit:4;stroke-dasharray:none;stroke-opacity:1"
       inkscape:export-filename="C:\Users\Charlie Wan\Documents\Shields Up\Assets\Weapon\MiniGun\MiniBarrel.png"
       inkscape:export-xdpi="96"
       inkscape:export-ydpi="96" />
    <rect
       y="7.338932"
       x="124.13929"
       height="67.886459"
       width="3.7417734"
       id="rect950"
       style="display:inline;opacity:1;fill:#ff0000;fill-opacity:0;stroke:#000000;stroke-width:2;stroke-miterlimit:4;stroke-dasharray:none;stroke-opacity:1"
       inkscape:export-filename="C:\Users\Charlie Wan\Documents\Shields Up\Assets\Weapon\MiniGun\MiniBarrel.png"
       inkscape:export-xdpi="96"
       inkscape:export-ydpi="96" />
    <path
       style="display:inline;opacity:1;fill:#ffffff;fill-opacity:1;stroke:#000000;stroke-width:16.03517723;stroke-miterlimit:4;stroke-dasharray:none;stroke-opacity:0"
       d="M 464.89032,381.64918 V 289.0182 h 12.72792 12.72793 v 92.63098 92.63099 h -12.72793 -12.72792 z"
       id="path1617"
       inkscape:connector-curvature="0"
       transform="scale(0.26458333)"
       inkscape:export-filename="C:\Users\Charlie Wan\Documents\Shields Up\Assets\Weapon\MiniGun\MiniBarrel.png"
       inkscape:export-xdpi="96"
       inkscape:export-ydpi="96" />
    <path
       style="display:inline;opacity:1;fill:#ffffff;fill-opacity:1;stroke:#000000;stroke-width:16.03517723;stroke-miterlimit:4;stroke-dasharray:none;stroke-opacity:0"
       d="m 479.70119,127.79785 c 0,-53.280495 0.17609,-75.077061 0.39131,-48.436813 0.21521,26.640243 0.21521,70.233383 0,96.873633 -0.21522,26.64024 -0.39131,4.84368 -0.39131,-48.43682 z"
       id="path1619"
       inkscape:connector-curvature="0"
       transform="scale(0.26458333)"
       inkscape:export-filename="C:\Users\Charlie Wan\Documents\Shields Up\Assets\Weapon\MiniGun\MiniBarrel.png"
       inkscape:export-xdpi="96"
       inkscape:export-ydpi="96" />
    <path
       style="display:inline;opacity:1;fill:#ffffff;fill-opacity:1;stroke:#000000;stroke-width:8.01758862;stroke-miterlimit:4;stroke-dasharray:none;stroke-opacity:0"
       d="M 473.64199,128.07051 V 31.550436 h 2.82842 2.82843 v 96.520074 96.52008 h -2.82843 -2.82842 z"
       id="path1625"
       inkscape:connector-curvature="0"
       transform="scale(0.26458333)"
       inkscape:export-filename="C:\Users\Charlie Wan\Documents\Shields Up\Assets\Weapon\MiniGun\MiniBarrel.png"
       inkscape:export-xdpi="96"
       inkscape:export-ydpi="96" />
    <rect
       style="display:inline;opacity:1;fill:#ff0000;fill-opacity:0;stroke:#000000;stroke-width:2.57507777;stroke-miterlimit:4;stroke-dasharray:none;stroke-opacity:1"
       id="rect936"
       width="9.6751585"
       height="66.243553"
       x="81.19648"
       y="60.879929" />
    <path
       style="opacity:1;fill:#ffffff;fill-opacity:1;stroke:#000000;stroke-width:16.03517723;stroke-miterlimit:4;stroke-dasharray:none;stroke-opacity:0"
       d="m 315.08503,1023.5486 c -6.07274,-10.4013 -13.06348,-30.46551 -15.17437,-43.55213 -4.41412,-27.36562 1.28545,-57.54541 15.70595,-83.16461 8.28044,-14.71088 30.22237,-36.70113 45.72244,-45.82314 42.38777,-24.94581 95.66313,-23.13567 136.64398,4.64276 9.05402,6.13717 29.52611,25.6883 29.52611,28.19786 0,0.73751 -1.60921,1.74482 -3.57602,2.23846 -1.96681,0.49364 -4.37861,2.42932 -5.35956,4.30152 l -1.78354,3.404 -6.59861,-7.64315 c -8.77434,-10.16328 -21.88037,-19.90022 -35.71528,-26.53417 -17.61116,-8.44468 -26.77197,-10.39138 -48.79037,-10.36806 -22.64529,0.024 -31.22862,1.97788 -50.91169,11.5895 -11.64908,5.68848 -15.32358,8.45172 -27.64201,20.78695 -15.62997,15.6513 -22.91876,27.51911 -29.14851,47.46039 -2.88869,9.24661 -3.30771,13.41724 -3.26796,32.52691 0.0421,20.25052 0.3451,22.78213 3.97744,33.23402 2.16252,6.22259 6.10744,15.29119 8.76648,20.15259 4.81835,8.809 4.82356,8.8388 1.54505,8.8388 -3.23477,0 -7.06095,3.1798 -8.16129,6.7825 -0.30787,1.0081 -2.89908,-2.1739 -5.75824,-7.071 z"
       id="path1669"
       inkscape:connector-curvature="0"
       transform="scale(0.26458333)"
       inkscape:export-filename="C:\Users\Charlie Wan\Documents\Shields Up\Assets\Weapon\MiniGun\MiniAmmoRing.png"
       inkscape:export-xdpi="96"
       inkscape:export-ydpi="96" />
    <g
       inkscape:export-ydpi="96"
       inkscape:export-xdpi="96"
       inkscape:export-filename="C:\Users\Charlie Wan\Documents\Shields Up\Assets\Weapon\MiniGun\MiniAmmoRing.png"
       id="g1677"
       style="display:inline">
      <path
         style="opacity:1;fill:#ffffff;fill-opacity:1;stroke:#000000;stroke-width:8.01758862;stroke-miterlimit:4;stroke-dasharray:none;stroke-opacity:0"
         d="m 416.01278,1088.2214 c -10.42615,-1.1885 -15.70031,-2.0951 -22.37322,-3.8458 -30.33587,-7.959 -56.35719,-26.517 -73.78525,-52.6226 -5.10877,-7.6525 -8.70552,-14.2002 -8.09636,-14.739 0.17057,-0.1509 2.98954,-2.2246 6.26436,-4.6083 l 5.95422,-4.334 2.59202,4.7769 c 6.3085,11.6262 12.32324,19.4978 22.00928,28.8039 42.59584,40.925 109.22009,41.7414 152.99487,1.8748 17.52188,-15.9576 29.49371,-37.1697 34.38143,-60.91825 1.82834,-8.88355 2.49763,-25.99273 1.36791,-34.96797 -3.18839,-25.33072 -14.45646,-48.65153 -31.75241,-65.71598 l -4.93706,-4.87098 6.10351,-4.49818 c 3.35694,-2.474 6.41319,-4.49819 6.79167,-4.49819 0.83293,0 6.93435,6.43775 12.06298,12.72793 12.42607,15.24034 21.8284,35.50178 25.97709,55.97896 1.40793,6.94933 1.62368,10.12821 1.62368,23.9241 0,13.82047 -0.21441,16.96855 -1.63263,23.97089 -5.89959,29.12877 -21.05667,55.13567 -42.73508,73.32587 -20.46427,17.1715 -44.28153,27.2982 -70.43528,29.9477 -6.87142,0.6961 -17.58622,0.8341 -22.37573,0.2882 z"
         id="path1671"
         inkscape:connector-curvature="0"
         transform="scale(0.26458333)" />
      <circle
         style="opacity:1;fill:#000000;fill-opacity:1;stroke:#000000;stroke-width:3;stroke-miterlimit:4;stroke-dasharray:none;stroke-opacity:0"
         id="circle1673"
         cx="87.151215"
         cy="273.02054"
         r="2.0579753" />
      <circle
         r="2.0579753"
         cy="236.57036"
         cx="139.22607"
         id="circle1675"
         style="opacity:1;fill:#000000;fill-opacity:1;stroke:#000000;stroke-width:3;stroke-miterlimit:4;stroke-dasharray:none;stroke-opacity:0" />
    </g>
    <circle
       inkscape:export-ydpi="96"
       inkscape:export-xdpi="96"
       inkscape:export-filename="C:\Users\Charlie Wan\Documents\Shields Up\Assets\Weapon\MiniGun\MiniAmmoRing.png"
       r="34.965706"
       cy="254.2003"
       cx="112.70044"
       id="circle1679"
       style="display:inline;opacity:1;fill:#ff0000;fill-opacity:0;stroke:#000000;stroke-width:2.09320998;stroke-miterlimit:4;stroke-dasharray:none;stroke-opacity:1" />
    <circle
       inkscape:export-ydpi="96"
       inkscape:export-xdpi="96"
       inkscape:export-filename="C:\Users\Charlie Wan\Documents\Shields Up\Assets\Weapon\MiniGun\MiniAmmoRing.png"
       style="display:inline;opacity:1;fill:#ff0000;fill-opacity:0;stroke:#000000;stroke-width:1.72037005;stroke-miterlimit:4;stroke-dasharray:none;stroke-opacity:1"
       id="circle1681"
       cx="112.70044"
       cy="254.2003"
       r="28.737656" />
    <path
       inkscape:export-ydpi="96"
       inkscape:export-xdpi="96"
       inkscape:export-filename="C:\Users\Charlie Wan\Documents\Shields Up\Assets\Weapon\MiniGun\MiniAmmoRing.png"
       transform="scale(0.26458333)"
       inkscape:connector-curvature="0"
       id="path1683"
       d="m 315.08503,1023.5486 c -6.07274,-10.4013 -13.06348,-30.46551 -15.17437,-43.55213 -4.41412,-27.36562 1.28545,-57.54541 15.70595,-83.16461 8.28044,-14.71088 30.22237,-36.70113 45.72244,-45.82314 42.38777,-24.94581 95.66313,-23.13567 136.64398,4.64276 9.05402,6.13717 29.52611,25.6883 29.52611,28.19786 0,0.73751 -1.60921,1.74482 -3.57602,2.23846 -1.96681,0.49364 -4.37861,2.42932 -5.35956,4.30152 l -1.78354,3.404 -6.59861,-7.64315 c -8.77434,-10.16328 -21.88037,-19.90022 -35.71528,-26.53417 -17.61116,-8.44468 -26.77197,-10.39138 -48.79037,-10.36806 -22.64529,0.024 -31.22862,1.97788 -50.91169,11.5895 -11.64908,5.68848 -15.32358,8.45172 -27.64201,20.78695 -15.62997,15.6513 -22.91876,27.51911 -29.14851,47.46039 -2.88869,9.24661 -3.30771,13.41724 -3.26796,32.52691 0.0421,20.25052 0.3451,22.78213 3.97744,33.23402 2.16252,6.22259 6.10744,15.29119 8.76648,20.15259 4.81835,8.809 4.82356,8.8388 1.54505,8.8388 -3.23477,0 -7.06095,3.1798 -8.16129,6.7825 -0.30787,1.0081 -2.89908,-2.1739 -5.75824,-7.071 z"
       style="opacity:1;fill:#ffffff;fill-opacity:1;stroke:#000000;stroke-width:16.03517723;stroke-miterlimit:4;stroke-dasharray:none;stroke-opacity:0" />
  </g>
  <g
     inkscape:groupmode="layer"
     id="layer4"
     inkscape:label="Main Gun color 1"
     style="display:inline" />
</svg>
