<?xml version="1.0" encoding="UTF-8" standalone="no"?>
<!-- Created with Inkscape (http://www.inkscape.org/) -->

<svg
   xmlns:dc="http://purl.org/dc/elements/1.1/"
   xmlns:cc="http://creativecommons.org/ns#"
   xmlns:rdf="http://www.w3.org/1999/02/22-rdf-syntax-ns#"
   xmlns:svg="http://www.w3.org/2000/svg"
   xmlns="http://www.w3.org/2000/svg"
   xmlns:xlink="http://www.w3.org/1999/xlink"
   xmlns:sodipodi="http://sodipodi.sourceforge.net/DTD/sodipodi-0.dtd"
   xmlns:inkscape="http://www.inkscape.org/namespaces/inkscape"
   width="250mm"
   height="250mm"
   viewBox="0 0 250 250"
   version="1.1"
   id="svg1610"
   inkscape:version="0.92.3 (2405546, 2018-03-11)"
   sodipodi:docname="PlayerBaseShield.svg"
   inkscape:export-filename="C:\Users\Charlie Wan\Documents\Shields Up\Assets\Sprites\PlayerBaseShield.png"
   inkscape:export-xdpi="96"
   inkscape:export-ydpi="96">
  <defs
     id="defs1604">
    <linearGradient
       inkscape:collect="always"
       id="linearGradient831">
      <stop
         style="stop-color:#03b200;stop-opacity:1;"
         offset="0"
         id="stop827" />
      <stop
         style="stop-color:#03b200;stop-opacity:0;"
         offset="1"
         id="stop829" />
    </linearGradient>
    <linearGradient
       inkscape:collect="always"
       id="linearGradient4676">
      <stop
         style="stop-color:#03b200;stop-opacity:1;"
         offset="0"
         id="stop4672" />
      <stop
         style="stop-color:#03b200;stop-opacity:0;"
         offset="1"
         id="stop4674" />
    </linearGradient>
    <clipPath
       clipPathUnits="userSpaceOnUse"
       id="clipPath2473">
      <rect
         style="opacity:1;fill:#a100ff;fill-opacity:1;stroke:#000000;stroke-width:10;stroke-miterlimit:4;stroke-dasharray:none;stroke-opacity:1"
         id="rect2475"
         width="293.30951"
         height="115.66071"
         x="-18.142857"
         y="37.708336" />
    </clipPath>
    <clipPath
       clipPathUnits="userSpaceOnUse"
       id="clipPath2477">
      <rect
         style="opacity:1;fill:#a100ff;fill-opacity:1;stroke:#000000;stroke-width:10;stroke-miterlimit:4;stroke-dasharray:none;stroke-opacity:1"
         id="rect2479"
         width="293.30951"
         height="115.66071"
         x="-18.142857"
         y="37.708336" />
    </clipPath>
    <linearGradient
       inkscape:collect="always"
       xlink:href="#linearGradient4676"
       id="linearGradient4678"
       x1="472.44193"
       y1="276.12549"
       x2="472.44193"
       y2="133.45332"
       gradientUnits="userSpaceOnUse" />
    <radialGradient
       inkscape:collect="always"
       xlink:href="#linearGradient831"
       id="radialGradient1036"
       gradientUnits="userSpaceOnUse"
       gradientTransform="matrix(1.1237761,0,0,21.883543,-16.445301,-2268.9031)"
       cx="125.86608"
       cy="109.39285"
       fx="125.86608"
       fy="109.39285"
       r="11.327381" />
  </defs>
  <sodipodi:namedview
     id="base"
     pagecolor="#ffffff"
     bordercolor="#666666"
     borderopacity="1.0"
     inkscape:pageopacity="0.0"
     inkscape:pageshadow="2"
     inkscape:zoom="0.98994949"
     inkscape:cx="268.40379"
     inkscape:cy="624.50273"
     inkscape:document-units="mm"
     inkscape:current-layer="layer3"
     showgrid="false"
     inkscape:window-width="2467"
     inkscape:window-height="1057"
     inkscape:window-x="85"
     inkscape:window-y="-8"
     inkscape:window-maximized="1"
     inkscape:pagecheckerboard="true" />
  <metadata
     id="metadata1607">
    <rdf:RDF>
      <cc:Work
         rdf:about="">
        <dc:format>image/svg+xml</dc:format>
        <dc:type
           rdf:resource="http://purl.org/dc/dcmitype/StillImage" />
        <dc:title></dc:title>
      </cc:Work>
    </rdf:RDF>
  </metadata>
  <g
     inkscape:groupmode="layer"
     id="layer5"
     inkscape:label="Layer 5">
    <path
       inkscape:connector-curvature="0"
       id="path905"
       style="opacity:1;fill:#00ff00;fill-opacity:1;stroke:#000000;stroke-width:0;stroke-miterlimit:4;stroke-dasharray:none;stroke-opacity:1"
       d="m 127.92186,10.672674 c 0.0449,0.05773 0.0692,0.0924 0.11834,0.154513 0.0806,0.04039 0.12031,0.05949 0.15606,0.07596 l -0.0217,-0.04341 c -0.0337,-0.02555 -0.19142,-0.142151 -0.25271,-0.187069 z m -1.26246,0.08372 -4.77438,2.690275 c -0.005,0.0576 -0.0109,0.09552 -0.0145,0.04703 0.003,-0.01481 0.007,-0.0296 0.01,-0.04444 l -0.0816,0.04599 c -0.0549,0.267015 -0.10532,0.534933 -0.1447,0.804602 0.0264,-0.04878 0.0516,-0.09827 0.0786,-0.146761 0.0313,-0.05642 -0.0922,0.239054 -0.0832,0.175183 0.001,-0.0095 0.003,-0.01893 0.005,-0.02842 -0.009,0.01619 -0.0177,0.03236 -0.0264,0.04858 0.0179,-0.06224 0.0344,-0.13701 0.0522,-0.235127 0.0198,-0.109202 0.0334,-0.442162 0.0145,-0.332796 -0.0518,0.300247 -0.0757,0.483518 -0.0889,0.610298 0.007,-0.01324 0.0141,-0.02656 0.0212,-0.03979 -0.007,0.02451 -0.0165,0.04181 -0.0243,0.06305 -0.0313,0.314965 -0.008,0.271629 -0.1416,0.596863 -0.0418,0.441745 -0.0487,0.498658 -0.19999,0.788065 -0.005,0.116312 -0.0123,0.232554 -0.0186,0.348816 -0.0231,0.07515 -0.0399,0.152827 -0.0687,0.225826 0.008,0.07038 0.0292,0.14562 -0.006,0.204122 -0.0636,0.105375 -0.13486,0.205927 -0.20464,0.307475 10e-4,0.0073 0.003,0.01442 0.004,0.0217 0.0308,0.276602 0.0193,0.353551 0.008,0.60048 -0.0234,0.362729 -0.0366,0.378301 -0.17311,0.582911 0.0145,0.413563 -0.099,0.72641 -0.33022,1.143599 0.004,-0.0029 0.006,0.0069 0.004,0.04651 -0.002,0.04566 -0.1056,0.637064 -0.22324,0.880566 -0.0331,0.176177 -0.0304,0.356761 -0.031,0.535885 -0.0188,0.07555 0.0164,0.157957 -0.002,0.233577 -0.005,0.02156 -0.029,0.03386 -0.0398,0.05323 -0.0425,0.0759 -0.0478,0.162744 -0.0568,0.247014 -0.002,0.03299 0.008,0.06867 -0.005,0.09922 -0.007,0.01684 -0.0318,0.01819 -0.0475,0.02739 -0.01,0.02022 -0.0219,0.03902 -0.0289,0.06046 -0.0269,0.08965 -0.0218,0.191394 -0.0238,0.283704 -0.1396,0.07369 -0.0711,0.269397 -0.0868,0.394291 -0.003,0.02608 -0.0203,0.04811 -0.0305,0.07235 -0.0553,0.217582 -0.0606,0.443444 -0.0646,0.666626 0.01,0.2259 0.006,0.451957 0.005,0.677995 -0.0249,-0.002 -0.0526,-0.01745 -0.0749,-0.0062 -0.0898,0.0452 -0.11028,0.421757 -0.11628,0.511597 -0.001,0.03868 0.019,0.08484 -0.004,0.116272 -0.071,-0.0028 -0.0864,-0.02188 -0.1297,0.04599 -0.0615,0.09639 -0.0431,0.237905 -0.0491,0.346232 -0.0469,0.07079 0.0338,0.17778 -0.009,0.24908 -0.0127,0.02138 -0.052,-0.0033 -0.0744,0.0078 -0.0829,0.04109 -0.0925,0.173891 -0.10697,0.24908 -0.014,0.241614 -0.007,0.485104 -0.007,0.727604 -0.0346,0.06783 0.0364,0.155355 0.005,0.222726 -0.01,0.02103 -0.0506,0.0039 -0.0672,0.02016 -0.0671,0.06555 -0.0776,0.229346 -0.0941,0.313677 -0.0364,0.229457 -0.0362,0.462341 -0.0357,0.694012 0.002,0.195176 0.003,0.390319 0.004,0.585497 0.01,0.213714 0.006,0.427966 0.004,0.641821 -0.002,0.195215 -0.003,0.390271 -0.003,0.585494 -0.004,0.202393 0.004,0.404836 0.005,0.607197 -0.002,0.205865 -0.004,0.411668 -0.005,0.617532 -7.9e-4,0.190411 -10e-4,0.380617 -10e-4,0.571027 0.007,0.143854 0.006,0.288036 0.005,0.432014 -2.6e-4,0.03549 0.008,0.0722 -0.001,0.106453 -0.005,0.01963 -0.0268,0.03072 -0.0403,0.04599 -0.0614,0.207219 -0.0517,0.424778 -0.0527,0.638204 -0.0149,0.08137 0.0119,0.164172 0.002,0.245462 -0.004,0.0312 -0.0209,0.05956 -0.0289,0.08992 -0.0296,0.111262 -0.0424,0.225517 -0.0558,0.339513 -0.003,0.03847 -0.002,0.07735 -0.009,0.115239 -0.006,0.02989 -0.023,0.05656 -0.03,0.0863 -0.0366,0.166499 -0.021,0.333277 -0.0863,0.492476 -0.0707,0.233585 -0.0573,0.478343 -0.16381,0.701249 -0.0419,0.118708 -0.0763,0.242594 -0.0884,0.368454 -0.004,0.04648 0.005,0.0944 -0.005,0.140041 -0.006,0.02926 -0.0303,0.05145 -0.0419,0.07907 -0.0128,0.03047 -0.0203,0.06314 -0.0305,0.09457 -0.007,0.0347 -0.004,0.07265 -0.0202,0.10387 -0.1264,0.2383 0.0129,-0.197474 -0.0904,0.106455 -0.0326,0.09576 -0.029,0.204468 -0.031,0.303856 2e-5,0.03565 0.0112,0.07295 5.3e-4,0.106971 -0.005,0.01722 -0.0359,0.01543 -0.0439,0.03152 -0.0445,0.08953 -0.0342,0.309076 -0.0382,0.410829 0,0.03669 0.0205,0.08097 -0.002,0.11007 -0.0693,-0.0063 -0.0856,-0.02638 -0.1292,0.03979 -0.0612,0.09277 -0.0531,0.219147 -0.0532,0.32298 -0.1692,0.12093 -0.18124,0.441748 -0.19534,0.635103 -0.024,0.08215 0.0136,0.167534 5.3e-4,0.249595 -0.004,0.02551 -0.0262,0.04427 -0.0362,0.06821 -0.0367,0.09112 -0.0432,0.190305 -0.0532,0.286804 -0.001,0.03517 0.007,0.07233 -0.005,0.105421 -0.007,0.01831 -0.0306,0.02368 -0.046,0.03565 -0.01,0.02138 -0.0225,0.04208 -0.0295,0.0646 -0.0264,0.08697 -0.0179,0.169084 -0.0512,0.254764 -0.087,0.07253 -0.0807,0.18328 -0.11782,0.27957 -0.0116,0.03003 -0.0355,0.05379 -0.0486,0.0832 -0.0885,0.198649 0.0205,0.02461 -0.0894,0.185002 -0.1117,0.298384 0.0342,-0.06439 -0.0946,0.182417 -0.0173,0.03333 -0.0185,0.07479 -0.0403,0.105421 -0.0161,0.02265 -0.0536,0.02392 -0.0682,0.04754 -0.0209,0.03388 -0.0203,0.07669 -0.032,0.11472 -0.0118,0.03806 -0.0258,0.07548 -0.0388,0.113173 -0.0959,0.09567 -0.0908,0.241014 -0.14624,0.353465 -0.0142,0.02891 -0.0466,0.04526 -0.0641,0.07235 -0.046,0.07127 -0.0512,0.124798 -0.0708,0.206189 -0.0331,0.08583 0.0246,0.189286 -0.007,0.275434 -0.009,0.02395 -0.0459,0.02463 -0.062,0.04444 -0.0695,0.08557 -0.0849,0.217721 -0.10542,0.320911 -0.0216,0.157607 -0.0304,0.317357 -0.0274,0.476456 0.001,0.04017 0.0219,0.08364 0.006,0.120407 -0.009,0.02143 -0.0448,0.01283 -0.0672,0.01913 -0.13374,0.171183 -0.12741,0.413107 -0.12041,0.620633 0,0.0029 0.002,0.23903 0.001,0.24443 -0.005,0.02294 -0.0283,0.03793 -0.0388,0.05891 -0.0405,0.08099 -0.0463,0.171722 -0.0553,0.259934 -0.0842,0.07004 -0.0461,0.165304 -0.0734,0.254765 -0.008,0.02474 -0.0375,0.03706 -0.0475,0.06098 -0.0758,0.184541 0.0374,0.04999 -0.0811,0.168462 -0.0544,0.09489 -0.0711,0.201237 -0.0816,0.30851 -0.003,0.03882 0.005,0.07989 -0.007,0.11679 -0.007,0.01998 -0.0353,0.02477 -0.047,0.04237 -0.0143,0.02151 -0.0189,0.04786 -0.0289,0.07183 -0.0369,0.05883 0.005,0.135057 -0.0212,0.194818 -0.007,0.01688 -0.0406,0.0087 -0.0496,0.02482 -0.0315,0.05797 -0.0296,0.245729 -0.0336,0.313158 -0.0141,0.228667 -4e-5,0.457005 0.001,0.685748 0.002,0.212283 -0.005,0.424455 0.002,0.636653 0.002,0.14636 5.3e-4,0.292886 -5.3e-4,0.439248 -2e-4,0.03462 0.009,0.0706 -0.001,0.10387 -0.005,0.01881 -0.0271,0.02786 -0.0408,0.04186 -0.007,0.02614 -0.0142,0.05243 -0.0212,0.07855 -0.002,0.0377 0.001,0.07635 -0.007,0.11317 -0.007,0.02945 -0.0277,0.05417 -0.0377,0.08268 -0.0394,0.111922 -0.0527,0.231511 -0.0682,0.348301 -0.003,0.04017 0.002,0.08208 -0.0103,0.120406 -0.007,0.02265 -0.037,0.03255 -0.047,0.05426 -0.0563,0.123481 -0.0462,0.301755 -0.0532,0.434084 -0.001,0.03746 0.0144,0.079 -0.003,0.112138 -0.0107,0.02019 -0.0436,0.01273 -0.0656,0.01913 -0.0156,0.02405 -0.0349,0.04639 -0.047,0.07235 -0.078,0.167312 0.0516,0.192884 -0.12402,0.267684 -0.0758,0.155742 -0.10956,0.32707 -0.12816,0.49816 -0.005,0.04315 0.007,0.09013 -0.0103,0.12971 -0.0106,0.02339 -0.0443,0.02648 -0.0661,0.03979 -0.0855,0.09906 -0.071,0.214522 -0.0972,0.331761 -0.0191,0.08539 -0.0771,0.227709 -0.12196,0.303859 -0.0444,0.06964 -0.0386,0.154416 -0.0661,0.228928 -0.0109,0.02953 -0.0344,0.05278 -0.047,0.08165 -0.0146,0.03364 -0.0182,0.07185 -0.0341,0.104902 -0.1481,0.307708 0.0487,-0.200014 -0.0899,0.175702 -0.118,0.0778 -0.0326,7.94e-4 -0.0977,0.156062 -0.0124,0.0297 -0.0372,0.05287 -0.0506,0.08217 -0.0599,0.131144 -0.0137,0.184508 -0.12196,0.289904 -0.057,0.05072 -0.0258,0.133689 -0.0589,0.19172 -0.1084,0.189831 -0.0136,-0.167817 -0.0899,0.104902 -0.009,0.03237 0.002,0.07086 -0.0155,0.09974 -0.0101,0.01691 -0.0372,0.01344 -0.0558,0.02016 -0.0346,0.226726 -0.0346,0.456443 -0.0341,0.685228 0.0734,0.372063 0.33178,0.669118 0.6413,0.871781 0.21567,0.126974 0.45759,0.145711 0.70125,0.156581 0.22176,0.0094 0.44378,0.0013 0.6656,5.29e-4 0.20945,-7.94e-4 0.41897,0.0035 0.62838,-0.0011 0.0376,-2.64e-4 0.0755,0.0047 0.11266,-0.0011 0.0238,-0.0037 0.0435,-0.02164 0.0672,-0.02635 0.11256,-0.02254 0.2463,0.02913 0.3545,0.05374 0.21834,0.04485 0.44187,0.05663 0.66404,0.06563 0.21511,0.007 0.43025,0.0024 0.64544,0.0031 0.22018,0.0013 0.44024,-0.0024 0.66042,-0.0011 0.21073,0.0038 0.42129,7.94e-4 0.632,-5.29e-4 0.2192,0.0024 0.43867,5.29e-4 0.65785,-5.29e-4 0.14856,2.64e-4 0.29698,0.0016 0.44545,0.0026 0.1743,-0.04793 0.35625,-0.09117 0.55293,-0.124023 0.22238,-0.03715 0.75867,-0.13299 1.01855,-0.157096 0.13053,-0.01212 0.3251,-0.13039 0.39274,-0.0181 0.0471,0.07822 0.0892,0.160965 0.12867,0.245978 0.22303,0.0182 0.42997,0.125264 0.64854,0.176734 0.16888,0.03727 0.3406,0.04879 0.51263,0.0553 -0.30233,-0.240223 -0.83746,-0.24175 -1.21284,-0.407212 0.26712,-0.0364 0.54004,-0.03237 0.80925,-0.0217 0.26059,2.64e-4 0.52128,-0.0021 0.78186,-0.0021 0.23032,5.29e-4 0.46061,5.6e-5 0.69092,0 0.24176,-4e-5 0.48377,-1.3e-5 0.72553,0 0.055,3e-6 0.11427,-0.02156 0.16485,0 0.15429,0.0658 0.30518,0.13925 0.45734,0.209807 0.27701,-0.03291 0.27033,-0.02553 0.58032,-0.03256 0.2863,0.01326 0.57287,0.01442 0.85938,0.01344 0.001,-0.0019 0.003,-0.0038 0.004,-0.0057 0.0347,-0.02064 0.0697,-0.04089 0.10439,-0.06149 5.3e-4,0.01206 10e-4,0.02601 0.002,0.03876 -0.0162,0.0094 -0.0324,0.019 -0.0486,0.02842 0.0107,-5.3e-5 0.0214,-5.29e-4 0.032,-5.29e-4 0.006,-0.0033 0.0114,-0.0065 0.0171,-0.0098 1.5e-4,0.0033 -1.5e-4,0.0065 0,0.0098 0.0939,-5.29e-4 0.18775,-2.41e-4 0.28163,-0.0011 0.28046,-0.0019 0.56135,5e-6 0.84181,0 0.25832,-2.46e-4 0.51631,-5.3e-5 0.77463,0 0.29971,2.6e-5 0.59946,3e-6 0.89917,0 0.17583,3e-6 0.35179,0 0.52762,0 0.0139,0 0.0187,-6.6e-5 0.0419,0 5.3e-4,-1.56e-4 10e-4,-2.65e-4 0.002,-5.29e-4 -0.0467,-2.65e-4 -0.0934,-7.94e-4 -0.14004,-0.0011 0.11463,-0.01868 0.21354,-0.03521 0.31367,-0.05116 0.95114,-0.288108 1.83631,-0.527815 2.55437,-0.831475 l -0.0367,-0.252182 c 2.6e-4,-0.01588 -2.6e-4,-0.03164 5.3e-4,-0.04754 -0.002,-0.007 -0.005,-0.01416 -0.007,-0.02119 -0.003,-0.0099 -0.002,-0.03025 0.001,-0.04651 -0.10241,-0.144513 -0.13938,-0.261038 -0.10335,-0.633555 -0.0353,-0.0746 -0.0827,-0.169686 -0.10646,-0.225309 -0.0206,-0.04826 -0.003,-0.104632 -0.004,-0.157096 0.001,-0.07492 8e-4,-0.149945 0.004,-0.224793 0.003,-0.06904 0.0101,-0.137872 0.0165,-0.206706 0.002,-0.01707 0.004,-0.04203 0.006,-0.05116 -0.0382,-0.09089 -0.0738,-0.172614 -0.11472,-0.273367 -0.0281,-0.06899 0.034,-0.330822 -0.008,-0.379304 0.005,-0.235895 2.7e-4,-0.19698 0.0207,-0.424781 0.001,-0.01349 0.002,-0.03869 0.004,-0.06046 -0.0382,-0.09341 -0.0678,-0.170797 -0.1142,-0.279054 -0.0113,-0.02635 -0.005,-0.09806 0.009,-0.174148 -0.0779,-0.196141 -0.11152,-0.391631 -0.093,-0.656291 -0.0622,-0.148977 -0.0994,-0.308785 -0.12454,-0.47284 -0.0657,-0.06279 -0.1258,-0.130043 -0.16898,-0.210322 -0.14941,-0.277792 -0.27145,-0.684766 -0.35295,-0.99994 -0.0118,-0.02788 -0.0227,-0.05617 -0.0341,-0.08423 -0.11286,-0.618895 -0.0816,-0.363207 0.0341,0.08423 0.007,0.01593 0.0129,0.03212 0.0196,0.04806 -0.0518,-0.262136 -0.0948,-0.525952 -0.1385,-0.789617 -0.021,-0.03856 -0.044,-0.07759 -0.0589,-0.119372 -0.003,-0.0074 -0.006,-0.02471 -0.009,-0.03411 0.005,0.07287 0.0122,0.117977 0.0408,0.239262 -0.0204,-0.08769 -0.0445,-0.192889 -0.0729,-0.315743 -0.0672,-0.145092 -0.0595,-0.152331 -0.0212,-0.09405 -0.007,-0.03074 -0.0267,-0.114115 -0.0269,-0.115756 -0.008,-0.06861 0.0147,0.0276 0.0413,0.138494 0.004,0.0056 0.0289,0.04485 0.0336,0.05219 -5.3e-4,-0.0177 -0.001,-0.01704 -0.002,-0.03927 -5.2e-4,-0.01582 -5.2e-4,-0.04541 0,-0.0708 -0.0477,-0.160808 -0.12808,-0.396184 -0.25735,-0.72812 8e-4,0.0039 0.002,0.0079 0.003,0.01188 0.007,0.0204 0.0171,0.04028 0.0217,0.0615 0.004,0.01926 -2.6e-4,0.01416 -0.008,0 0.0181,0.08085 0.0393,0.161067 0.0553,0.242363 0.008,0.03997 -0.0347,-0.07415 -0.0481,-0.112657 -0.0301,-0.08595 -0.0511,-0.204578 -0.0553,-0.25528 -0.008,-0.02307 -0.019,-0.0501 -0.0222,-0.06511 -0.004,-0.01744 -0.006,-0.03522 -0.009,-0.05271 -0.002,-0.006 -0.005,-0.01154 -0.006,-0.01757 -0.0192,-0.0798 -0.0288,-0.161272 -0.0388,-0.24288 -0.005,-0.0314 -0.0112,-0.06261 -0.016,-0.09405 l -0.001,-0.0016 c -0.008,-0.03205 -0.0153,-0.06425 -0.0243,-0.09612 -0.0261,-0.0523 -0.0601,-0.130177 -0.0693,-0.171563 -0.009,-0.03945 -0.0122,-0.06918 -0.0202,-0.107487 -0.019,-0.05104 -0.0192,-0.04839 -0.0403,-0.105937 -0.021,-0.05704 0.008,0.01267 0.0362,0.08371 -0.0367,-0.179239 -0.0686,-0.347273 -0.0904,-0.490408 -0.0245,-0.06829 -0.0391,-0.13186 -0.0481,-0.191203 -0.005,-0.01138 -0.0114,-0.02204 -0.016,-0.03359 -0.008,-0.01916 -0.0393,-0.174467 -0.0703,-0.335381 -0.005,-0.01736 -0.01,-0.03128 -0.015,-0.04806 -0.0292,-0.03679 -0.045,-0.07055 -0.063,-0.208256 -0.15338,-0.494874 -0.22814,-0.770419 -0.13074,-1.349272 -0.0737,-0.158832 -0.14856,-0.317156 -0.22014,-0.476975 -0.0113,-0.02514 0,-0.05514 0,-0.08268 V 38.454286 37.772674 37.190797 36.381541 35.64877 34.997646 34.58837 c -0.003,-0.0557 -0.006,-0.111104 -0.006,-0.166915 -0.0582,-0.163213 -0.087,-0.328049 -0.092,-0.500226 -0.002,-0.214678 -0.0574,-0.432814 -0.12247,-0.637689 -0.0337,-0.181165 -0.10973,-0.348146 -0.15503,-0.525549 -0.0204,-0.179261 -0.0714,-0.36012 -0.14005,-0.527617 -0.0635,-0.121245 -0.0575,-0.249864 -0.0605,-0.381889 -0.0821,-0.194336 -0.17238,-0.382005 -0.18758,-0.594278 0,-0.02495 0.005,-0.05098 -0.002,-0.07493 -0.0532,-0.180065 -0.15382,-0.332986 -0.18242,-0.520899 0.0138,-0.178898 -0.0501,-0.341791 -0.0801,-0.515212 -0.0138,-0.198885 -0.0682,-0.395928 -0.14469,-0.579811 -0.0509,-0.197395 -0.13624,-0.381585 -0.21394,-0.569473 -0.0495,-0.136858 -0.0413,-0.2833 -0.0393,-0.426331 -0.0163,-0.200594 -0.074,-0.394285 -0.0868,-0.596863 -0.0154,-0.219676 -0.12222,-0.420217 -0.17002,-0.634587 -0.0517,-0.136369 -0.0967,-0.275567 -0.11214,-0.421161 -0.003,-0.03176 0.002,-0.06485 -0.007,-0.0956 -0.0166,-0.0592 -0.0452,-0.114345 -0.0677,-0.171567 -0.0828,-0.17875 -0.11902,-0.364445 -0.12402,-0.559654 -0.003,-0.194848 -5.3e-4,-0.390147 0.003,-0.584979 0.0321,-0.255669 -0.108,-0.478657 -0.1695,-0.719335 -0.0275,-0.158074 -0.0217,-0.319677 -0.0227,-0.479558 -0.0148,-0.08374 0.003,-0.183671 0.01,-0.277502 -0.003,-0.04769 -0.005,-0.09544 -0.007,-0.143144 -0.0258,-0.110491 -0.0755,-0.214491 -0.11059,-0.322461 -0.0552,-0.180899 -0.0704,-0.367935 -0.077,-0.555521 -0.055,-0.209155 -0.0793,-0.404007 -0.0977,-0.633553 -0.0597,-0.11432 -0.1146,-0.230295 -0.15451,-0.35295 -0.0847,-0.260206 -0.0512,-0.595458 -0.0264,-0.902271 -0.0631,-0.17233 -0.13383,-0.362209 -0.23306,-0.606682 0.004,-0.0248 0.007,-0.04963 0.0104,-0.07441 -0.008,-0.01984 -0.0196,-0.03848 -0.0269,-0.05891 -0.10238,-0.285761 -0.14963,-0.47571 -0.16795,-0.639237 -0.10123,0.05789 -0.20169,0.11714 -0.30283,0.175183 0.003,-0.01456 0.004,-0.02943 0.008,-0.04393 0.0618,-0.171664 0.14632,-0.208072 0.28836,-0.196887 -5.3e-4,-0.008 -0.002,-0.01688 -0.003,-0.02481 -0.0143,-0.03262 -0.0304,-0.06452 -0.0424,-0.09819 -0.0958,-0.270226 -0.1328,-0.532281 -0.13179,-0.794271 -0.22995,-0.208735 -0.45638,-0.354528 -0.68161,-0.443901 10e-4,-0.0052 0.002,-0.01031 0.004,-0.0155 0.004,-0.04253 0.002,-0.08604 0.0119,-0.12764 0.031,-0.133094 0.15714,-0.225846 0.10284,-0.382406 0.0356,-0.08709 0.088,-0.172107 0.092,-0.268718 0.002,-0.04158 -0.009,-0.08352 -0.007,-0.125056 0.002,-0.02494 0.0121,-0.04813 0.0181,-0.07235 0.0132,-0.05374 0.021,-0.107024 0.0253,-0.160197 -0.0765,-0.215618 -0.16375,-0.428981 -0.19895,-0.654224 -0.0132,-0.08434 -0.0189,-0.160263 -0.0207,-0.232544 -0.0105,-0.03997 -0.0242,-0.0791 -0.0331,-0.119372 -0.0221,-0.09979 -0.0354,-0.184552 -0.0439,-0.262517 -0.0514,-0.106998 -0.11367,-0.231729 -0.15813,-0.35295 -0.082,-0.167053 -0.13892,-0.301039 -0.0512,-0.199471 0.003,0.0033 0.005,0.007 0.008,0.01033 -3e-5,-8.46e-4 2e-5,-0.0017 0,-0.0026 -0.29474,-0.65915 -0.10043,-0.243877 0.0114,0.205156 0.0241,0.09697 -0.11039,-0.16853 -0.14573,-0.262 -0.11885,-0.31417 -0.18114,-0.532895 -0.21037,-0.756546 -0.33556,-0.596293 -0.66316,-1.275319 -0.18293,-0.861963 -0.0308,-0.110767 -0.0413,-0.234386 -0.0429,-0.361218 -0.008,-0.04468 -0.0148,-0.08981 -0.0202,-0.135392 -0.0319,-0.09895 -0.0635,-0.198183 -0.0889,-0.29869 -0.0363,-0.0821 -0.0696,-0.165021 -0.0966,-0.250631 -0.0387,-0.12255 -0.0475,-0.251382 -0.0532,-0.380855 -0.0172,-0.07844 -0.0367,-0.156385 -0.0548,-0.234611 -0.002,0.0063 -0.006,0.01113 -0.0114,0.01343 -0.0458,0.01871 -0.0283,-0.09469 -0.0424,-0.14211 -0.11882,-0.372499 -0.0982,-0.744517 -0.0594,-1.123963 z m 0.46974,2.914034 c 0.006,0.01986 0.01,0.04044 0.0165,0.05943 0.0159,0.04474 0.0364,0.08756 0.0548,0.131259 -0.002,-0.04192 -0.002,-0.08432 -0.002,-0.126608 -0.0226,-0.02089 -0.0494,-0.04701 -0.0693,-0.06408 z m 0.0713,0.190686 c 0.009,0.184146 0.0432,0.371208 0.10439,0.570508 -0.009,-0.10854 -0.0127,-0.229826 -0.009,-0.359151 -0.0344,-0.06927 -0.0652,-0.140156 -0.0951,-0.211357 z m 0.10439,0.570508 c 0.003,0.03298 0.003,0.06837 0.007,0.100769 0.0317,0.05639 0.0598,0.108461 0.091,0.162264 -0.0178,-0.03459 -0.0369,-0.06882 -0.0506,-0.10542 -0.0207,-0.05522 -0.0314,-0.105043 -0.0475,-0.157613 z m 4.88343,26.594245 c 0.0197,0.06344 0.0409,0.135721 0.0631,0.208256 0.002,0.0024 0.004,0.0064 0.007,0.0093 -0.0596,-0.316193 -0.11619,-0.673123 -0.0661,-0.571023 -0.0151,-0.05501 -0.0235,-0.09264 -0.0408,-0.15348 -0.0133,-0.04675 -0.0114,0.09744 -0.006,0.145727 0.0224,0.191302 0.0335,0.285623 0.0434,0.36122 z m 0.004,-0.353468 c 0.11377,0.415185 0.16861,0.675479 0.19379,0.839743 0.0149,0.03826 0.0275,0.06746 0.0455,0.117306 0.0137,0.03813 -0.006,0.0036 -0.0351,-0.04909 0.0134,0.100904 0.0197,0.166428 0.0248,0.211357 0.0429,0.07778 0.0895,0.153845 0.13694,0.229444 -0.21994,-0.888857 -0.32788,-1.27127 -0.36587,-1.348756 z m 0.22893,1.119312 c -0.0133,-0.02418 -0.025,-0.04919 -0.0372,-0.0739 0.006,0.04398 0.01,0.07484 0.0171,0.124542 0.009,0.02432 0.0159,0.0471 0.0279,0.07493 0.0534,0.123624 0.22421,0.486363 0.19224,0.355534 -0.0213,-0.08699 -0.0322,-0.1279 -0.0517,-0.206706 -0.0929,-0.123891 -0.1395,-0.196971 -0.14831,-0.274402 z m -0.0248,-0.211357 c -0.003,-0.01955 -0.007,-0.04538 -0.0104,-0.06821 -0.0152,-0.03893 -0.032,-0.08445 -0.0444,-0.113173 0.004,0.0323 0.006,0.05045 0.0129,0.104389 0.0152,0.02841 0.028,0.05141 0.0419,0.077 z m -0.13798,-0.336931 c 0.004,0.01929 0.005,0.02013 0.008,0.03876 0.0145,0.048 0.025,0.08058 0.0403,0.133323 0.005,0.0089 0.0153,0.02808 0.0222,0.04083 -5.3e-4,-0.06016 5.3e-4,-0.0581 5.3e-4,-0.08268 -0.0353,-0.07752 -0.0544,-0.107698 -0.0713,-0.130225 z m 0.3266,1.390613 c 0.005,0.0096 0.008,0.01611 0.0124,0.02326 -0.003,-0.0199 -0.007,-0.03954 -0.0104,-0.05943 -0.002,-0.006 -0.005,-0.01331 -0.007,-0.01963 -0.0101,-0.02643 -0.0176,-0.04562 -0.0289,-0.07545 0.01,0.04402 0.0213,0.08771 0.0336,0.131257 z m -0.005,-0.05581 c 0.002,0.0061 0.004,0.01159 0.007,0.01757 -0.0196,-0.127728 -0.0389,-0.255397 -0.0651,-0.381889 -0.0155,-0.07506 0.002,0.153871 0.0145,0.229444 0.002,0.01437 0.008,0.02812 0.0109,0.04238 0.0125,0.03391 0.0228,0.06252 0.0331,0.0925 z m 0.007,0.01757 c 1e-4,7.94e-4 -1.1e-4,0.0013 0,0.0021 0.007,0.02228 0.0212,0.05593 0.0258,0.07235 0.007,0.02535 -0.002,0.01138 -0.0155,-0.01291 0.004,0.0249 0.009,0.04952 0.0129,0.07441 0.003,0.006 0.003,0.0061 0.006,0.01188 -8e-4,-0.006 -0.002,-0.01206 -0.003,-0.0181 0.002,0.0084 0.004,0.01688 0.006,0.02532 0.15682,0.329461 0.10303,0.197445 -0.032,-0.15503 z m 0.032,0.15503 c -0.002,-0.0034 -0.001,-0.0038 -0.003,-0.0072 0.004,0.02737 0.007,0.05469 0.0103,0.08216 0.0139,0.087 0.0277,0.174096 0.045,0.260451 0.01,0.03359 0.0224,0.06634 0.0362,0.0987 -0.006,-0.01617 -0.006,-0.0036 -0.005,0.01913 0.0172,0.05057 0.0354,0.101418 0.0481,0.125574 -0.005,-0.0205 -0.009,-0.04101 -0.0139,-0.06149 -0.008,-0.02297 -0.0146,-0.04666 -0.0243,-0.06925 0.009,0.02257 0.0133,0.03569 0.0217,0.05736 -0.0387,-0.168405 -0.0766,-0.336973 -0.11524,-0.505397 z m 0.37259,1.233516 c 0.0209,0.07053 0.0246,0.09188 0.0367,0.140044 -0.0107,-0.05986 -0.0193,-0.120171 -0.031,-0.179834 -0.004,-0.02074 -0.005,0.0059 -0.006,0.03979 z m 0.0367,0.140044 c 0.002,0.01085 0.004,0.02172 0.006,0.03256 7.9e-4,0.0013 0.004,0.0054 0.005,0.0067 -0.003,-0.01273 -0.007,-0.02492 -0.0103,-0.03927 z m 0.006,0.03256 c -0.007,-0.01135 -0.0347,-0.05372 -0.0403,-0.06253 0.001,0.04031 0.003,0.06534 0.005,0.0894 0.0215,0.04729 0.0408,0.09021 0.0661,0.149345 -0.01,-0.0588 -0.0201,-0.117528 -0.0305,-0.176218 z m 0.0305,0.176218 c 5.3e-4,0.0035 0.002,0.0069 0.002,0.01035 0.0104,0.01902 0.0373,0.0791 0.0289,0.05891 -0.0124,-0.02976 -0.0192,-0.04178 -0.031,-0.06925 z m -0.0661,-0.149345 c -0.001,-0.0021 -0.002,-0.0046 -0.003,-0.0067 0.001,0.0038 0.003,0.0093 0.004,0.01291 -1.1e-4,-0.0016 -5.3e-4,-0.0045 -5.3e-4,-0.0062 z m 0.709,2.111497 c 0.003,0.0033 0.007,0.0061 0.0108,0.0093 -0.004,-0.0097 -0.009,-0.01926 -0.0134,-0.02894 0.001,0.0065 0.002,0.01312 0.003,0.01963 z m 0.0108,0.0093 c 0.08,0.175025 0.16123,0.349547 0.24029,0.525034 -0.0354,-0.135141 -0.0686,-0.270864 -0.10335,-0.406177 -0.0483,-0.03758 -0.0931,-0.07786 -0.13694,-0.118857 z m 0.24029,0.525034 c 0.0238,0.09059 0.047,0.181235 0.0708,0.271817 0.0312,0.03755 0.0644,0.07429 0.10129,0.109038 -0.0582,-0.126545 -0.11485,-0.253855 -0.17208,-0.380855 z m 0.0708,0.271817 c -0.0673,-0.08106 -0.12199,-0.168058 -0.16639,-0.259932 0.0108,0.159272 0.0331,0.275146 0.0997,0.432531 0.0469,-0.136099 0.10806,-0.17458 0.11885,0.203089 2.7e-4,5.29e-4 1.9e-4,5.29e-4 5.3e-4,0.0011 0.0304,0.04011 0.0339,0.04316 0.0698,0.09147 -0.0405,-0.156207 -0.0814,-0.312121 -0.12247,-0.468188 z m 0.0527,0.376722 c 5.3e-4,0.01672 0.002,0.02551 0.002,0.04392 0.0257,0.04895 0.0411,0.08321 0.0739,0.143144 0.0761,0.139002 0.39251,0.495121 0.3111,0.359151 -0.0673,-0.11248 -0.14353,-0.219186 -0.2217,-0.324527 0.13967,0.195696 0.21724,0.321688 -0.0605,0.0047 -0.0114,-0.04433 -0.0232,-0.08851 -0.0346,-0.13281 -0.0237,-0.03103 -0.0465,-0.06251 -0.0703,-0.09353 z m -0.21903,-0.636646 c -0.005,-0.07155 -0.009,-0.147611 -0.0155,-0.252182 -0.009,0.06586 -0.0115,0.121007 -0.0155,0.1788 0.0102,0.02453 0.0195,0.04945 0.031,0.07338 z m 0.45889,3.740341 c 0.032,0.09104 0.0647,0.1818 0.0966,0.272852 0.0324,-0.01405 0.0608,-0.03008 0.0925,-0.04444 -0.0738,-0.123163 -0.13932,-0.216804 -0.1881,-0.284739 2.6e-4,0.01879 7e-5,0.03749 -0.001,0.05633 z m -12.7198,-36.167832 c 5.3e-4,-0.0061 0.002,-0.01688 0.003,-0.02325 -0.0324,0.06066 -0.0655,0.121088 -0.0977,0.181901 -0.002,0.02003 -0.002,0.02693 -0.005,0.04599 0.0413,-0.06751 0.073,-0.132649 0.0992,-0.204639 z m 5.48183,-3.475757 c 0.0406,0.09032 0.0726,0.167675 0.12041,0.268718 0.0368,0.07774 0.24085,0.242868 0.19275,0.171566 -0.12719,-0.188553 -0.22758,-0.327211 -0.31316,-0.440284 z m 1.09038,0.17415 c -0.0646,-0.03792 0.0835,0.05519 0.18861,0.121956 l -0.005,-0.0093 c -0.0732,-0.04456 -0.0741,-0.04817 -0.18392,-0.112654 z m -1.13792,1.890841 c 0.007,0.03866 0.0135,0.06693 0.0207,0.101802 -0.003,-0.0248 -0.005,-0.04955 -0.008,-0.07441 -0.004,-0.0091 -0.008,-0.0183 -0.0129,-0.02739 z m 0.59583,1.210262 c 0.0116,0.03534 0.0235,0.0706 0.0351,0.105936 0.0548,0.05063 0.20598,0.213307 0.16433,0.151412 -0.0604,-0.08981 -0.12911,-0.173837 -0.19947,-0.257348 z m -0.1018,0.306957 c 0.0128,0.051 0.0259,0.101966 0.0388,0.152963 0.0337,0.04314 0.12372,0.179161 0.10128,0.129191 -0.043,-0.09563 -0.091,-0.189234 -0.14004,-0.282154 z m -6.03323,0.07183 c -0.0457,0.08649 -0.0924,0.172649 -0.13849,0.258899 0.0575,-0.09426 0.10059,-0.16106 0.13746,-0.220658 1.9e-4,-0.01276 8e-4,-0.02548 0.001,-0.03824 z m -0.01,0.170016 c -0.006,0.05977 -0.0138,0.119969 -0.0186,0.168982 0.001,-0.0064 0.006,-0.01934 0.007,-0.02481 0.008,-0.04754 0.009,-0.09597 0.0114,-0.144177 z m 6.03013,0.125057 c 0.0871,0.145555 0.1606,0.265529 0.19947,0.323494 0.003,-0.0014 0.007,-0.0019 0.009,-0.0031 -0.061,-0.11128 -0.137,-0.214916 -0.20878,-0.320394 z m -6.21771,0.182418 c -0.0162,0.220711 -0.0252,0.441927 -0.0357,0.663008 0.0106,-0.04581 0.0209,-0.09403 0.0336,-0.170532 0.0207,-0.125007 0.0146,-0.253114 0.015,-0.379822 1.3e-4,-0.03771 -0.0102,-0.150259 -0.0129,-0.112654 z m 0.1142,0.05529 c -0.0237,0.05762 -0.0295,0.07155 -0.0615,0.150378 -0.0207,0.09664 0.0197,-0.01702 0.0615,-0.150378 z m -0.49143,1.820044 c -0.007,0.01007 -0.0136,0.02044 -0.0207,0.03049 -0.0508,0.105576 -0.069,0.135015 -0.0465,0.06976 -0.11602,0.161844 -0.23539,0.32143 -0.35398,0.481624 -2.4e-4,0.04823 -7.9e-4,0.09649 -0.001,0.144694 0,0.09579 0.002,0.191543 0.002,0.287321 0.0755,-0.10369 0.14473,-0.212822 0.21756,-0.318844 -0.008,-0.06869 -0.0157,-0.13324 -0.0253,-0.224275 0.0181,0.07268 0.0278,0.134223 0.0413,0.200504 0.0109,-0.01563 0.0208,-0.03217 0.032,-0.04754 0.10629,-0.465411 0.14599,-0.559543 0.15503,-0.623735 z m -0.26201,1.361674 c -0.0377,0.06175 -0.0838,0.142983 -0.13229,0.227893 0.004,0.02917 0.008,0.06034 0.0129,0.08475 0.0524,-0.124725 0.0902,-0.224757 0.11938,-0.312642 z m -0.11937,0.312642 c -0.005,0.01152 -0.006,0.01703 -0.0109,0.02894 -0.007,0.01595 -0.0163,0.03031 -0.0253,0.04496 -1.7e-4,0.06855 -10e-4,0.137114 5.3e-4,0.205673 -0.0315,0.03121 -0.0433,0.07048 -0.0517,0.111104 -7e-5,3.7e-4 -5.2e-4,6.61e-4 -5.2e-4,0.001 -0.0116,0.09524 -0.0276,0.212926 -0.0346,0.284222 0.16928,-0.367215 0.16146,-0.463882 0.12247,-0.675928 z m -0.0129,-0.08475 c -0.002,-0.01408 -0.005,-0.02539 -0.007,-0.04082 -0.004,0.02529 -0.006,0.04444 -0.01,0.06873 0.006,-0.01084 0.0106,-0.01745 0.0165,-0.02791 z m -0.0165,0.02791 c -0.002,0.0037 -0.005,0.0097 -0.007,0.01344 -9e-5,0.01206 9e-5,0.02412 0,0.03617 0.002,-0.01679 0.005,-0.03207 0.007,-0.04961 z m -0.0475,0.682646 c -0.0133,0.0239 -0.0355,0.05907 -0.0496,0.08372 -0.0101,0.104049 -0.0164,0.144977 -0.0232,0.214974 0.0308,-0.136745 0.0605,-0.263476 0.0729,-0.29869 z m -0.12195,0.206706 c -0.009,0.01553 -0.0198,0.03314 -0.03,0.05013 -2.1e-4,0.0049 -10e-4,0.0096 -0.002,0.01447 0.0109,-0.02204 0.0212,-0.04344 0.0315,-0.06459 z m 11.73675,20.271115 c 0.0357,0.466569 0.20003,0.611598 0.48937,1.030428 -0.16582,-0.342162 -0.32886,-0.685739 -0.48937,-1.030428 z m -4.03645,5.253943 c -0.0171,0.02185 -0.021,0.05486 -0.0439,0.0708 -0.0271,0.01887 -0.0644,0.01524 -0.0966,0.02273 -0.1154,0.06359 -0.0631,0.0226 -0.15503,0.124023 -0.0317,0.01937 -0.0725,0.01701 -0.10697,0.03101 -0.0317,0.01286 -0.0574,0.04029 -0.0904,0.04909 -0.008,0.0021 -0.017,9.2e-5 -0.0253,0.0011 0.17272,-0.09966 0.3456,-0.199036 0.51832,-0.298691 z m 5.42189,0.833541 c 0.007,0.02849 0.0141,0.06009 0.0176,0.07751 0.002,0.01206 0.0133,0.04774 0.0109,0.03566 -0.007,-0.03802 -0.0183,-0.07552 -0.0284,-0.113172 z m 0.23565,0 c -0.0104,0.06989 -0.0208,0.139988 -0.0227,0.209806 0.0399,0.05935 0.0804,0.118504 0.1204,0.177768 -0.0325,-0.129182 -0.0667,-0.258013 -0.0977,-0.387574 z m -7.74733,0.371038 c 0.004,0.02281 0.006,0.046 0.0104,0.06873 0.008,0.03474 0.061,0.215942 0.10025,0.351401 -0.0754,-2.04e-4 -0.15093,-5.29e-4 -0.22634,0 -0.20571,0.0013 -0.41135,-0.0016 -0.61702,0.0021 0.24419,-0.140846 0.48859,-0.281332 0.73277,-0.422196 z m 8.12612,0.418579 c 0.009,0.01191 0.0166,0.02431 0.0253,0.03617 0.0205,0.02781 0.11056,0.08197 0.0858,0.05788 -0.0344,-0.03348 -0.0733,-0.0633 -0.11111,-0.09405 z m 5.3e-4,1.143082 c -10e-4,0.06694 -2.5e-4,0.115617 -0.004,0.197921 0.12171,0.168712 0.24572,0.336156 0.36741,0.504878 -0.14885,-0.301813 -0.26456,-0.516159 -0.3638,-0.702799 z m -0.0424,0.153479 c -0.002,0.03176 -0.006,0.06366 0,0.09457 0.1374,0.686736 0.14216,0.731046 0.39274,0.989086 -0.0609,-0.181758 -0.14753,-0.481123 -0.39274,-1.083654 z m 0.093,1.122929 c 0.001,0.03334 -0.005,0.06696 -10e-4,0.100251 0.0336,0.355851 0.0409,0.286959 0.18655,0.673346 0.62636,0.839779 0.3742,0.556032 -0.18552,-0.773597 z m 0.10283,0.904854 c 0.0222,0.389612 0.13255,0.571203 0.33021,0.860412 0.0267,-0.01241 0.0529,-0.02506 0.0791,-0.03772 -0.1322,-0.263028 -0.28814,-0.569119 -0.40927,-0.82269 z m -7.39955,1.917713 c 0.13936,0.06555 0.27852,0.131596 0.41755,0.197919 0.009,-0.0026 0.0181,-0.0034 0.0269,-0.0062 0.005,0.0087 0.0127,0.01918 0.0181,0.0279 0.19083,0.09106 0.38166,0.182153 0.57309,0.271817 -0.53309,-0.385177 -0.44113,-0.372036 -1.03559,-0.491442 z" />
    <path
       id="path935"
       style="opacity:1;fill:#00ff00;fill-opacity:1;stroke:#000000;stroke-width:0;stroke-miterlimit:4;stroke-dasharray:none;stroke-opacity:1"
       d="m 126.89044,41.244509 -0.0326,0.01654 c -0.0142,0.05444 -0.0313,0.107914 -0.0475,0.161747 0.0106,0.06578 0.0108,0.06127 0.0253,0.152963 0.0292,0.06685 0.0578,0.133811 0.0873,0.200505 0.0273,0.03071 0.0437,0.05187 0.0646,0.077 -0.0281,-0.218221 -0.0511,-0.429452 -0.0393,-0.500746 -0.0197,-0.03577 -0.0382,-0.07217 -0.0579,-0.108003 z m 0.0579,0.108004 c 0.0883,0.160183 0.17695,0.320058 0.26872,0.478524 -0.0708,-0.163405 -0.14586,-0.324662 -0.22996,-0.481625 -0.0218,-0.04063 -0.033,-0.03166 -0.0388,0.0031 z m 0.26872,0.478524 c 0.0286,0.06609 0.0538,0.133805 0.0811,0.200505 v -0.05685 c -0.0275,-0.04769 -0.0535,-0.096 -0.0811,-0.14366 z m -0.22944,0.02222 c 10e-4,0.0096 0.002,0.01722 0.003,0.02687 l 0.0594,0.07752 c -0.0189,-0.01748 -0.0708,-0.074 -0.0563,-0.05271 0.0628,0.09214 0.11141,0.13993 0.12557,0.141076 -0.002,0.01692 -0.006,0.03367 -0.007,0.05064 -0.0126,0.1406 -0.0123,0.27911 -0.009,0.418062 0.0203,0.0556 0.0326,0.02799 0.0253,-0.154513 0.0617,0.08493 0.11761,0.174497 0.17622,0.262 -0.0497,-0.161267 -0.0929,-0.326037 -0.15245,-0.482141 0.002,-0.119811 0.009,-0.23934 0.007,-0.359152 -5.3e-4,-0.02098 -0.009,0.04074 -0.0119,0.06149 -0.01,0.06411 -0.0189,0.128433 -0.0269,0.192754 -0.005,-0.02047 -0.0537,-0.08693 -0.13281,-0.181901 z m 0.31729,0.768945 c 0.0332,0.107572 0.0706,0.212921 0.11679,0.313676 -0.003,-0.05355 -0.005,-0.106976 -0.005,-0.159164 -0.0392,-0.05003 -0.0766,-0.101436 -0.11213,-0.154512 z m 0.11214,0.154512 c 0.0439,0.123379 0.0849,0.247838 0.12661,0.372071 0.0214,0.02923 0.0443,0.05734 0.0692,0.0832 0.002,-0.03068 0.009,-0.04192 0.0233,-0.01395 0.011,0.02127 0.0211,0.04304 0.0315,0.0646 7.9e-4,8.2e-4 0.002,0.0018 0.003,0.0026 -0.0742,-0.157321 -0.14779,-0.315002 -0.22221,-0.472324 -0.0102,-0.0122 -0.0212,-0.02367 -0.031,-0.03617 z m -0.31368,-0.261999 c -0.0302,-0.08252 -0.0735,-0.34318 -0.10955,-0.609782 -0.001,-0.0089 -0.002,-0.01589 -0.003,-0.02481 l -0.0522,-0.06821 c 0.012,0.02842 0.0269,0.05564 0.0372,0.08475 0.0155,0.04402 -0.0701,-0.106728 -0.0853,-0.147795 l -0.0992,-0.129708 c -0.002,0.0012 -0.006,-0.0011 -0.0165,-0.0093 -0.007,-0.0054 -0.0119,-0.01338 -0.0186,-0.01912 -0.0791,0.227523 -0.17648,0.44847 -0.29973,0.656291 v 5.3e-4 c -0.0491,0.239374 -0.25146,0.550702 -0.37207,0.754993 -0.005,0.01089 -0.011,0.02123 -0.016,0.03204 0.03,-0.04883 0.0697,-0.114603 0.0543,-0.08475 -0.0281,0.05445 -0.0599,0.106848 -0.0909,0.15968 -0.0133,0.09865 -0.0266,0.197189 -0.0413,0.295589 -0.20924,0.529437 0.0841,-0.182832 -0.26872,0.24753 -0.0126,0.06146 -0.0296,0.121798 -0.0496,0.181384 -0.009,0.04854 -0.0165,0.09807 -0.0238,0.147278 0.0221,-0.02344 0.0518,-0.05807 0.0698,-0.07545 0.0337,-0.03259 -0.0409,0.08421 -0.0656,0.124023 -0.005,0.0089 -0.0115,0.01751 -0.0171,0.02636 -0.009,0.05178 -0.0211,0.102712 -0.0408,0.151412 -0.0427,0.105473 -0.0998,0.204473 -0.15761,0.302824 -0.008,0.03429 -0.0137,0.0693 -0.0227,0.103353 -0.0134,0.05026 -0.078,0.142111 -0.11627,0.186552 -0.0345,0.08636 -0.0701,0.175325 -0.0946,0.23151 -0.0153,0.03519 -0.0372,0.06632 -0.0605,0.09663 l -0.0243,0.05943 c -0.004,0.0041 -0.0121,0.01425 -0.0165,0.01912 -0.19007,0.599689 -0.46042,1.34154 -0.61598,1.504301 -0.0255,0.08235 -0.0684,0.196622 -0.0956,0.251664 -0.0592,0.120009 -0.12871,0.234706 -0.19895,0.348816 -0.0273,0.07469 -0.0316,0.09027 -0.0476,0.135393 -0.0114,0.01639 -0.0327,0.0495 -0.0496,0.07493 -0.0185,0.04908 -0.0283,0.07584 -0.0408,0.111105 -0.004,0.02889 -0.007,0.05802 -0.0119,0.08682 -0.0116,0.06658 -0.0249,0.13697 -0.063,0.192753 -0.0562,0.08213 -0.11751,0.160784 -0.17983,0.238745 -0.0107,0.03987 -0.0204,0.08015 -0.0331,0.119373 -0.0121,0.03751 -0.0297,0.07249 -0.0481,0.107487 0.002,-0.0024 0.007,-0.0076 0.009,-0.0098 0.0374,-0.03693 -0.0506,0.09195 -0.076,0.137976 0.0212,-0.0432 0.0448,-0.08546 0.0672,-0.128157 -0.0612,0.06171 -0.14598,0.162427 -0.23357,0.268717 -0.01,0.02895 -0.0181,0.05837 -0.0279,0.08733 l 4.29017,-2.080492 c -0.0452,-0.221242 -0.0737,-0.445293 -0.0646,-0.671793 -0.0195,-0.05045 -0.0393,-0.100674 -0.0548,-0.152446 -0.0155,-0.05271 -0.0415,-0.216037 -0.0259,-0.163298 0.0308,0.103504 0.055,0.209114 0.0806,0.314193 1.2e-4,-0.0029 -1.3e-4,-0.0058 0,-0.0088 -0.0568,-0.343581 -0.10799,-0.68813 -0.17466,-1.029911 -0.004,-0.01875 -0.004,0.0042 -0.005,0.02894 0.002,0.0062 0.003,0.01239 0.005,0.0186 0.001,0.0056 -0.004,-0.01227 -0.006,-0.01654 -2.5e-4,0.03476 8e-4,0.08128 0.003,0.106453 0.0129,0.169931 0.0156,0.171203 0.0202,0.196371 -0.0343,-0.178683 -0.0661,-0.35781 -0.0982,-0.536919 -0.10004,-0.196232 -0.11078,-0.345544 -0.22841,-1.048515 -0.0116,-0.06907 -0.003,-0.139228 0.008,-0.209289 -0.0557,-0.257803 -0.10646,-0.489583 -0.0956,-0.754993 -0.004,-0.07094 -0.005,-0.141109 -0.007,-0.211357 z m 0.57826,3.465938 c -2e-5,5.29e-4 2e-5,0.001 0,0.0016 2.7e-4,10e-4 5.3e-4,0.0021 0.001,0.0031 -2.6e-4,-0.0015 -5.3e-4,-0.0031 -0.001,-0.0047 z m -4.19767,2.666504 c 0.021,-0.06181 0.0412,-0.123809 0.0625,-0.185519 -0.0932,0.114175 -0.17989,0.232345 -0.25994,0.355018 l 0.0956,-0.04651 c 0.0362,-0.04416 0.0631,-0.07599 0.10181,-0.12299 z m 0.0625,-0.185519 c 0.0842,-0.103162 0.16903,-0.206048 0.25217,-0.310058 0.0263,-0.0975 0.049,-0.196175 0.062,-0.296106 0.002,-0.0123 0.002,-0.03813 0.004,-0.05529 -0.0666,0.137198 -0.13825,0.270413 -0.22531,0.392224 -0.0313,0.08961 -0.062,0.179541 -0.093,0.269234 z m 0.093,-0.269234 c 0.0521,-0.149146 0.10398,-0.298552 0.15503,-0.448034 -0.17607,0.08843 -0.5069,0.359925 -1.14463,1.065051 -0.21705,0.239983 0.63279,-0.222249 0.85783,-0.454753 0.0489,-0.05048 0.0912,-0.105527 0.13177,-0.162264 z m 0.15503,-0.448034 c 0.0298,-0.01496 0.0557,-0.02628 0.077,-0.03152 0.008,-0.114998 0.0125,-0.229025 -0.01,-0.162781 -0.0216,0.06498 -0.045,0.129482 -0.0672,0.194304 z m 0.077,-0.03152 c -0.002,0.03228 -0.004,0.06022 -0.007,0.08733 0.0154,-0.03177 0.0309,-0.06361 0.046,-0.0956 -0.0106,1.54e-4 -0.0257,0.0049 -0.0393,0.0083 z m 0.22272,-0.190686 c 0.0126,-0.03346 0.0395,-0.09841 0.0553,-0.139009 -0.0281,0.04565 -0.0533,0.09293 -0.0806,0.139009 -0.002,0.01605 -0.004,0.03203 -0.007,0.04806 0.0117,-0.01778 0.0212,-0.03171 0.032,-0.04806 z m 0.0553,-0.139009 c 0.0145,-0.02349 0.0274,-0.04781 0.0419,-0.07131 0.0619,-0.169455 0.15026,-0.407189 0.10852,-0.306958 -0.0713,0.171334 -0.10747,0.26781 -0.15038,0.378272 z m 0.33641,-0.671794 c 0.003,-0.01081 0.004,-0.01702 0.007,-0.02636 -0.0136,0.02135 -0.0259,0.03258 -0.032,0.01602 -0.002,-0.0058 2.7e-4,-0.01131 0,-0.01705 -0.0126,0.02022 -0.0253,0.04432 -0.0382,0.06666 0.0172,0.0059 0.0399,-0.01449 0.0636,-0.03927 z m -0.0636,0.03927 c -0.009,-0.0031 -0.0173,-0.01139 -0.0243,-0.02429 -0.0154,0.02052 -0.0321,0.03997 -0.0475,0.06046 -0.15214,0.375692 -0.24889,0.615191 -0.27285,0.66921 -1.1e-4,8.73e-4 -5.3e-4,0.0017 -5.3e-4,0.0026 0.068,-0.160482 0.20615,-0.467814 0.34519,-0.707967 z m -0.0243,-0.02429 c 0.0271,-0.03606 0.0554,-0.07112 0.0827,-0.10697 0.006,-0.0093 0.0118,-0.01903 0.0186,-0.02842 0.001,-0.0053 0.003,-0.01067 0.004,-0.01602 -0.0311,0.03598 -0.0712,0.08879 -0.11059,0.137459 0.002,0.0044 0.003,0.01037 0.005,0.01395 z m -0.005,-0.01395 c -0.002,-0.005 -0.004,-0.01 -0.006,-0.01602 -0.006,0.01572 -0.0125,0.03087 -0.0186,0.04599 0.009,-0.01094 0.0157,-0.01933 0.0243,-0.02997 z m -0.006,-0.01602 c 0.0796,-0.197088 0.1134,-0.276813 0.23255,-0.576709 -0.003,0.01424 -0.005,0.0286 -0.008,0.04289 0.0125,-0.04697 0.0242,-0.09411 0.0367,-0.141077 -0.0286,0.04397 -0.061,0.08627 -0.0946,0.127641 -0.0306,0.05564 -0.0603,0.111617 -0.0915,0.166915 -0.0209,0.02126 -0.057,0.06246 -0.0899,0.09922 -0.004,0.131741 -2.6e-4,0.230794 0.0145,0.28112 z m 0.16692,-0.547253 c 0.034,-0.06186 0.068,-0.123532 0.1018,-0.185519 v -5.29e-4 c 0.009,-0.02189 0.0174,-0.04371 0.0258,-0.06563 0.0631,-0.238651 0.1215,-0.478388 0.17416,-0.719337 0.008,-0.09293 0.0168,-0.186102 0.0269,-0.278018 0.003,-0.03296 -0.01,-0.09208 -0.0202,-0.136426 -1.48893,1.703609 -1.02463,1.46197 -0.45217,1.160653 -0.0215,0.187712 -0.0324,0.330706 -0.0377,0.450102 0.0586,-0.07632 0.1207,-0.150579 0.18139,-0.22531 z m 0.30179,-0.971 c -0.0117,0.134374 -0.0258,0.268037 -0.0501,0.399458 0.14313,-0.372128 0.28868,-0.743284 0.47129,-1.09709 0.0817,-0.158208 -0.0129,0.209604 -0.16123,0.682129 0.01,-0.01103 0.0181,-0.02263 0.0269,-0.03411 l 0.3359,-0.826824 c 8e-4,-0.0023 0.001,-0.0044 0.002,-0.0067 -0.0337,0.05069 -0.0841,0.127281 -0.0636,0.09508 0.0213,-0.0335 0.0432,-0.06661 0.0651,-0.09973 0.004,-0.01457 0.009,-0.02927 0.0129,-0.04289 0.008,-0.04123 0.0145,-0.08267 0.0217,-0.124023 -0.23971,0.272125 -0.5275,0.623305 -0.40824,0.432532 0.068,-0.108778 0.1109,-0.170653 0.16795,-0.258899 -0.1474,0.164668 -0.2881,0.32294 -0.40876,0.460953 0.0247,0.06421 0.0494,0.131489 0.0367,0.197404 -0.0144,0.07462 -0.0324,0.148513 -0.0486,0.222726 z m 0.42064,-0.881084 c 0.066,-0.07367 0.11135,-0.126886 0.18294,-0.206189 0.0402,-0.04458 0.0609,-0.0504 0.0677,-0.02894 0.0106,-0.06272 0.0216,-0.125358 0.032,-0.188103 -0.0749,0.105008 -0.17155,0.251339 -0.28267,0.42323 z m 0.28267,-0.423229 c 0.0592,-0.08304 0.1218,-0.17181 0.16227,-0.221175 0.002,-0.01008 0.005,-0.01983 0.007,-0.02997 0.0299,-0.169579 0.0516,-0.68035 -5.3e-4,-0.516248 -0.0795,0.249915 -0.12566,0.508086 -0.16898,0.767395 z m -0.0641,0.373621 c -0.002,0.01044 -0.005,0.02058 -0.007,0.03101 l 0.0904,-0.221692 c -0.0188,0.02088 -0.0323,0.03435 -0.0522,0.05684 -0.004,0.03372 -0.0154,0.07943 -0.031,0.133842 z m -0.007,0.03101 -0.003,0.0072 c 8e-4,-10e-4 0.001,-0.0021 0.002,-0.0031 2.6e-4,-0.0013 2.3e-4,-0.0028 5.3e-4,-0.0041 z m -0.003,0.0072 c -10e-4,0.0016 -0.002,0.0031 -0.003,0.0047 -5.3e-4,0.0016 -10e-4,0.003 -0.002,0.0047 0.001,-0.0015 0.001,-0.0011 0.002,-0.0026 z m -0.003,0.0067 -0.004,0.0093 c -0.0323,0.1043 -0.076,0.225784 -0.12195,0.346749 0.026,-0.04635 0.0531,-0.0921 0.0801,-0.137976 0.0177,-0.07425 0.0352,-0.148713 0.0496,-0.223759 -0.002,0.0031 -0.002,0.0027 -0.004,0.0057 z m -0.12598,0.356052 c -0.0302,0.05369 -0.0588,0.108148 -0.0837,0.164331 -0.0119,0.02675 0.003,0.01259 0.0248,-0.0124 0.0208,-0.05213 0.0375,-0.0955 0.0589,-0.151929 z m -0.24081,0.514178 c -0.0822,0.09508 -0.18711,0.176239 -0.24702,0.286288 -0.0549,0.100757 0.14217,-0.142828 0.23306,-0.241846 0.005,-0.01533 0.009,-0.02934 0.014,-0.04444 z m -0.6165,1.428337 c -5.3e-4,0.0021 -0.001,0.0041 -0.002,0.0062 0.0179,-0.02338 0.036,-0.04664 0.0543,-0.06976 -5.3e-4,-0.0055 -0.003,-0.0072 -0.01,0 -0.004,0.0039 -0.0112,0.01428 -0.015,0.0186 -0.008,0.0152 -0.0172,0.03027 -0.0279,0.04496 z m -0.002,0.0062 c -0.006,0.0074 -0.0114,0.01479 -0.017,0.02222 -0.0141,0.02135 -0.0216,0.04268 -0.0202,0.06459 0.009,-0.01371 0.018,-0.03241 0.0263,-0.04496 v -5.29e-4 c 0.003,-0.01383 0.007,-0.02753 0.0109,-0.04134 z m -0.005,0.08785 c 0.022,-0.03448 0.0467,-0.09599 0.0558,-0.133324 -0.0216,0.03074 -0.0456,0.06397 -0.0589,0.08372 0.0221,-0.03204 0.0169,4.4e-5 0.003,0.04961 z m 1.14257,-2.628781 c 0.005,-0.02492 0.009,-0.04974 0.0129,-0.07493 -0.015,0.01585 -0.0306,0.03319 -0.047,0.05116 -0.0226,0.05877 -0.0462,0.117297 -0.0661,0.176734 0.0338,-0.05078 0.0677,-0.101419 0.10025,-0.152963 z m 0.68936,-1.602486 c -0.0218,0.03238 -0.0551,0.08304 -0.0863,0.130741 -0.003,0.01566 -0.01,0.03706 -0.0124,0.05168 0.0339,-0.02677 0.0668,-0.100029 0.0987,-0.182418 z m -0.20722,0.301277 c -0.0142,0.0176 -0.0313,0.04186 -0.0413,0.05013 -0.013,0.0898 -0.0277,0.179276 -0.0398,0.269235 0.0328,-0.104908 0.0602,-0.211479 0.0811,-0.319361 z m -0.0413,0.262 c -0.0101,0.01723 -0.0277,0.04682 -0.0362,0.06201 -0.005,0.0096 0.0116,-0.01835 0.0176,-0.02791 0.004,-0.0078 0.0184,-0.03496 0.0186,-0.03411 z m -0.0579,0.117305 c -0.0404,0.07865 -0.0799,0.157647 -0.11834,0.237195 -0.0366,0.07554 0.0877,-0.144826 0.11472,-0.224275 10e-4,-0.0042 0.002,-0.0087 0.004,-0.01292 z m 1.22887,0.545187 c 0.004,0.02779 8e-4,0.0066 0.006,0.05013 0.009,0.02643 0.02,0.106235 0.0258,0.07906 0.006,-0.03014 -0.018,-0.05913 -0.0238,-0.0894 -0.003,-0.01475 -0.005,-0.02535 -0.008,-0.03979 z m 0.0651,0.429948 c -0.01,-0.01395 0.0715,0.445736 0.12609,0.606164 0.002,0.0066 0.006,0.0126 0.008,0.01912 -0.0407,-0.196315 -0.0797,-0.392692 -0.12454,-0.588078 -0.005,-0.0236 -0.008,-0.03521 -0.01,-0.03721 z m 0.13642,0.671276 c 0.0101,0.0349 0.0195,0.06998 0.0295,0.104904 -0.006,-0.02703 -0.0114,-0.05408 -0.0171,-0.08113 -0.005,-0.0084 -0.008,-0.0157 -0.0124,-0.02377 z m 0.0935,0.586527 c 0.008,0.01098 0.0202,0.03462 0.0481,0.162782 0.009,0.04293 -0.0325,-0.08254 -0.0414,-0.125575 -0.003,-0.01235 -0.004,-0.02485 -0.007,-0.03721 z m 0.21859,0.918808 c 0.007,0.04081 0.0134,0.08166 0.0202,0.122473 0.008,0.01452 0.0168,0.02849 0.0248,0.04289 -0.0161,-0.05481 -0.0307,-0.109978 -0.045,-0.165363 z m -3.60598,0.611849 c -0.008,0.04688 -0.0128,0.09447 -0.0196,0.141593 0.003,-0.0047 0.008,-0.01036 0.0114,-0.0155 0.0123,-0.112839 0.0209,-0.196984 0.008,-0.12609 z m -0.0104,0.147795 c -0.004,0.005 -0.008,0.01048 -0.0124,0.0155 -0.013,0.09257 -0.0272,0.185136 -0.0382,0.278019 0.008,-0.01507 0.0152,-0.03112 0.0238,-0.04599 0.005,-0.05511 0.017,-0.158276 0.0269,-0.24753 z m -0.18862,0.67076 c -2.6e-4,5.55e-4 -7.9e-4,0.001 -0.001,0.0016 -0.0143,0.02805 -0.008,0.02138 0.007,10e-4 -0.002,-0.0013 -0.005,-0.0014 -0.006,-0.0026 z"
       inkscape:connector-curvature="0" />
  </g>
  <g
     inkscape:groupmode="layer"
     id="layer2"
     inkscape:label="Layer 2" />
  <g
     inkscape:groupmode="layer"
     id="layer4"
     inkscape:label="Layer 4"
     transform="translate(0,-47)" />
  <g
     inkscape:label="Layer 1"
     inkscape:groupmode="layer"
     id="layer1"
     transform="translate(0,-47)">
    <g
       inkscape:groupmode="layer"
       id="layer3"
       inkscape:label="Layer 3"
       transform="translate(0,47)">
      <rect
         style="opacity:1;fill:#00ff00;fill-opacity:1;stroke:#000000;stroke-width:2.91244626;stroke-miterlimit:4;stroke-dasharray:none;stroke-opacity:1"
         id="rect825"
         width="22.087553"
         height="147.08755"
         x="113.95622"
         y="51.456223" />
      <path
         style="fill:#000000;stroke:#000000;stroke-width:3;stroke-linecap:butt;stroke-linejoin:miter;stroke-miterlimit:4;stroke-dasharray:none;stroke-opacity:1"
         d="M 113.95622,51.456222 125,5.3549105"
         id="path861"
         inkscape:connector-curvature="0"
         sodipodi:nodetypes="cc" />
      <path
         style="fill:none;stroke:#000000;stroke-width:3;stroke-linecap:butt;stroke-linejoin:miter;stroke-opacity:1;stroke-miterlimit:4;stroke-dasharray:none"
         d="M 125,5.3549105 136.04378,51.456222"
         id="path863"
         inkscape:connector-curvature="0" />
      <rect
         y="51.456223"
         x="113.95622"
         height="147.08755"
         width="22.087553"
         id="rect1032"
         style="opacity:1;fill:url(#radialGradient1036);fill-opacity:1;stroke:#000000;stroke-width:2.91244626;stroke-miterlimit:4;stroke-dasharray:none;stroke-opacity:1" />
    </g>
    <path
       style="opacity:1;fill:#03ffb3;fill-opacity:0.9921875;stroke:#000000;stroke-width:2.99999714;stroke-miterlimit:4;stroke-dasharray:none;stroke-opacity:1"
       d="m 102.53159,90.689482 -45.294814,17.931208 -0.13333,0.0134 0.006,0.0367 -34.56577,13.68392 7.71062,16.52147 31.33136,-12.40338 63.414604,-6.4146 63.41408,6.4146 31.33136,12.40338 7.71062,-16.52147 -34.56577,-13.68392 0.006,-0.0367 -0.13333,-0.0134 -45.29481,-17.931208 -4.66121,9.988538 -0.11368,-0.702281 -17.69346,1.790071 -17.69398,-1.790071 -0.11368,0.702281 z"
       id="rect823"
       inkscape:connector-curvature="0" />
    <path
       style="opacity:1;fill:#03b200;fill-opacity:1;stroke:#000000;stroke-width:16.19797516;stroke-miterlimit:4;stroke-dasharray:none;stroke-opacity:1"
       d=""
       id="path4660"
       inkscape:connector-curvature="0"
       transform="matrix(0.26458333,0,0,0.26458333,0,47)" />
    <path
       style="opacity:1;fill:url(#linearGradient4678);fill-opacity:1;stroke:#000000;stroke-width:0;stroke-miterlimit:4;stroke-dasharray:none;stroke-opacity:1"
       d="m 770.50449,316.66341 -56.42857,-22.42448 -23.57143,-2.40775 C 677.5402,290.50691 623.1666,284.9936 569.67428,279.57938 l -97.25879,-9.84405 -39.88407,4.08662 c -21.93624,2.24764 -76.2055,7.74831 -120.59836,12.22372 l -80.71428,8.13711 -55.48155,21.97824 c -30.51485,12.08803 -56.22914,21.96577 -57.14286,21.95056 -2.33203,-0.0388 -24.563972,-48.37118 -22.953687,-49.90143 2.75979,-2.62263 288.042717,-114.59544 289.020347,-113.43974 0.5704,0.67429 5.81495,11.64845 11.65456,24.38702 5.83961,12.73856 11.02554,23.18499 11.5243,23.21428 0.49874,0.0293 1.3382,-3.39945 1.86546,-7.61942 l 0.95864,-7.67267 5.99167,0.59174 c 3.29543,0.32546 17.24169,1.74623 30.99169,3.15728 24.78877,2.54386 25.25348,2.53924 55,-0.54712 16.5,-1.71196 30.39741,-2.90875 30.88313,-2.65953 0.48572,0.24922 1.3239,3.77581 1.86261,7.83686 0.55426,4.17816 1.51206,6.82793 2.20621,6.1035 0.6747,-0.70414 5.82618,-11.24453 11.44772,-23.4231 5.62154,-12.17857 10.74668,-22.67964 11.38923,-23.33572 0.64253,-0.65607 44.47431,15.95904 97.40395,36.92246 52.92965,20.96342 117.45,46.49117 143.37858,56.72833 25.92857,10.23716 47.65531,19.07737 48.28164,19.64491 0.83178,0.7537 -20.83943,50.10785 -22.33749,50.87149 -0.12643,0.0644 -25.62273,-9.97384 -56.65844,-22.30731 z"
       id="path4662"
       inkscape:connector-curvature="0"
       transform="matrix(0.26458333,0,0,0.26458333,0,47)" />
  </g>
</svg>
