<?xml version="1.0" encoding="UTF-8" standalone="no"?>
<!-- Created with Inkscape (http://www.inkscape.org/) -->

<svg
   xmlns:dc="http://purl.org/dc/elements/1.1/"
   xmlns:cc="http://creativecommons.org/ns#"
   xmlns:rdf="http://www.w3.org/1999/02/22-rdf-syntax-ns#"
   xmlns:svg="http://www.w3.org/2000/svg"
   xmlns="http://www.w3.org/2000/svg"
   xmlns:xlink="http://www.w3.org/1999/xlink"
   xmlns:sodipodi="http://sodipodi.sourceforge.net/DTD/sodipodi-0.dtd"
   xmlns:inkscape="http://www.inkscape.org/namespaces/inkscape"
   width="250mm"
   height="250mm"
   viewBox="0 0 250 250"
   version="1.1"
   id="svg1610"
   inkscape:version="0.92.3 (2405546, 2018-03-11)"
   sodipodi:docname="PlayerBaseShield.svg"
   inkscape:export-filename="C:\Users\Charlie Wan\Documents\Shields Up\Assets\Sprites\PlayerBaseShield.png"
   inkscape:export-xdpi="96"
   inkscape:export-ydpi="96">
  <defs
     id="defs1604">
    <linearGradient
       inkscape:collect="always"
       id="linearGradient4676">
      <stop
         style="stop-color:#03b200;stop-opacity:1;"
         offset="0"
         id="stop4672" />
      <stop
         style="stop-color:#03b200;stop-opacity:0;"
         offset="1"
         id="stop4674" />
    </linearGradient>
    <clipPath
       clipPathUnits="userSpaceOnUse"
       id="clipPath2473">
      <rect
         style="opacity:1;fill:#a100ff;fill-opacity:1;stroke:#000000;stroke-width:10;stroke-miterlimit:4;stroke-dasharray:none;stroke-opacity:1"
         id="rect2475"
         width="293.30951"
         height="115.66071"
         x="-18.142857"
         y="37.708336" />
    </clipPath>
    <clipPath
       clipPathUnits="userSpaceOnUse"
       id="clipPath2477">
      <rect
         style="opacity:1;fill:#a100ff;fill-opacity:1;stroke:#000000;stroke-width:10;stroke-miterlimit:4;stroke-dasharray:none;stroke-opacity:1"
         id="rect2479"
         width="293.30951"
         height="115.66071"
         x="-18.142857"
         y="37.708336" />
    </clipPath>
    <linearGradient
       inkscape:collect="always"
       xlink:href="#linearGradient4676"
       id="linearGradient4678"
       x1="472.44193"
       y1="276.12549"
       x2="472.44193"
       y2="133.45332"
       gradientUnits="userSpaceOnUse" />
  </defs>
  <sodipodi:namedview
     id="base"
     pagecolor="#ffffff"
     bordercolor="#666666"
     borderopacity="1.0"
     inkscape:pageopacity="0.0"
     inkscape:pageshadow="2"
     inkscape:zoom="0.7"
     inkscape:cx="-185.78122"
     inkscape:cy="604.74264"
     inkscape:document-units="mm"
     inkscape:current-layer="layer1"
     showgrid="false"
     inkscape:window-width="2467"
     inkscape:window-height="1057"
     inkscape:window-x="85"
     inkscape:window-y="-8"
     inkscape:window-maximized="1"
     inkscape:pagecheckerboard="true" />
  <metadata
     id="metadata1607">
    <rdf:RDF>
      <cc:Work
         rdf:about="">
        <dc:format>image/svg+xml</dc:format>
        <dc:type
           rdf:resource="http://purl.org/dc/dcmitype/StillImage" />
        <dc:title></dc:title>
      </cc:Work>
    </rdf:RDF>
  </metadata>
  <g
     inkscape:label="Layer 1"
     inkscape:groupmode="layer"
     id="layer1"
     transform="translate(0,-47)">
    <path
       style="opacity:1;fill:#03ffb3;fill-opacity:0.9921875;stroke:#000000;stroke-width:2.99999714;stroke-miterlimit:4;stroke-dasharray:none;stroke-opacity:1"
       d="m 102.53159,90.689482 -45.294814,17.931208 -0.13333,0.0134 0.006,0.0367 -34.56577,13.68392 7.71062,16.52147 31.33136,-12.40338 63.414604,-6.4146 63.41408,6.4146 31.33136,12.40338 7.71062,-16.52147 -34.56577,-13.68392 0.006,-0.0367 -0.13333,-0.0134 -45.29481,-17.931208 -4.66121,9.988538 -0.11368,-0.702281 -17.69346,1.790071 -17.69398,-1.790071 -0.11368,0.702281 z"
       id="rect823"
       inkscape:connector-curvature="0" />
    <path
       style="opacity:1;fill:#03b200;fill-opacity:1;stroke:#000000;stroke-width:16.19797516;stroke-miterlimit:4;stroke-dasharray:none;stroke-opacity:1"
       d=""
       id="path4660"
       inkscape:connector-curvature="0"
       transform="matrix(0.26458333,0,0,0.26458333,0,47)" />
    <path
       style="opacity:1;fill:url(#linearGradient4678);fill-opacity:1;stroke:#000000;stroke-width:0;stroke-miterlimit:4;stroke-dasharray:none;stroke-opacity:1"
       d="m 770.50449,316.66341 -56.42857,-22.42448 -23.57143,-2.40775 C 677.5402,290.50691 623.1666,284.9936 569.67428,279.57938 l -97.25879,-9.84405 -39.88407,4.08662 c -21.93624,2.24764 -76.2055,7.74831 -120.59836,12.22372 l -80.71428,8.13711 -55.48155,21.97824 c -30.51485,12.08803 -56.22914,21.96577 -57.14286,21.95056 -2.33203,-0.0388 -24.563972,-48.37118 -22.953687,-49.90143 2.75979,-2.62263 288.042717,-114.59544 289.020347,-113.43974 0.5704,0.67429 5.81495,11.64845 11.65456,24.38702 5.83961,12.73856 11.02554,23.18499 11.5243,23.21428 0.49874,0.0293 1.3382,-3.39945 1.86546,-7.61942 l 0.95864,-7.67267 5.99167,0.59174 c 3.29543,0.32546 17.24169,1.74623 30.99169,3.15728 24.78877,2.54386 25.25348,2.53924 55,-0.54712 16.5,-1.71196 30.39741,-2.90875 30.88313,-2.65953 0.48572,0.24922 1.3239,3.77581 1.86261,7.83686 0.55426,4.17816 1.51206,6.82793 2.20621,6.1035 0.6747,-0.70414 5.82618,-11.24453 11.44772,-23.4231 5.62154,-12.17857 10.74668,-22.67964 11.38923,-23.33572 0.64253,-0.65607 44.47431,15.95904 97.40395,36.92246 52.92965,20.96342 117.45,46.49117 143.37858,56.72833 25.92857,10.23716 47.65531,19.07737 48.28164,19.64491 0.83178,0.7537 -20.83943,50.10785 -22.33749,50.87149 -0.12643,0.0644 -25.62273,-9.97384 -56.65844,-22.30731 z"
       id="path4662"
       inkscape:connector-curvature="0"
       transform="matrix(0.26458333,0,0,0.26458333,0,47)" />
  </g>
  <g
     inkscape:groupmode="layer"
     id="layer2"
     inkscape:label="Layer 2" />
</svg>
